<svg id="svg" version="1.1" xmlns="http://www.w3.org/2000/svg" xmlns:xlink="http://www.w3.org/1999/xlink" width="400" height="152.1951219512195" viewBox="0, 0, 400,152.1951219512195"><g id="svgg"><path id="path0" d="M0.000 76.083 L 0.000 152.167 200.000 152.167 L 400.000 152.167 400.000 76.083 L 400.000 0.000 200.000 0.000 L 0.000 0.000 0.000 76.083 M93.917 51.099 C 94.635 52.617,94.389 53.851,93.322 54.086 C 91.439 54.499,90.901 52.222,92.414 50.239 C 92.966 49.516,93.243 49.674,93.917 51.099 M87.635 52.581 C 87.947 52.978,88.148 53.557,89.654 58.417 C 90.979 62.692,92.278 63.259,93.856 60.250 C 94.591 58.848,94.870 58.739,95.661 59.542 C 98.138 62.055,99.944 68.615,99.336 72.894 C 98.050 81.955,85.248 83.690,81.120 75.362 L 80.417 73.942 80.417 71.680 L 80.417 69.417 81.897 65.000 C 86.356 51.703,86.573 51.231,87.635 52.581 M240.959 67.838 C 240.986 76.293,240.941 81.625,240.844 81.722 C 240.746 81.821,239.830 81.382,238.385 80.542 L 236.083 79.204 236.040 71.102 C 236.016 66.646,235.971 63.000,235.939 63.000 C 235.907 63.000,234.325 63.900,232.424 65.000 C 230.522 66.100,228.937 67.000,228.900 67.000 C 228.863 67.000,228.834 65.594,228.835 63.875 L 228.838 60.750 234.710 57.382 C 237.941 55.530,240.658 54.036,240.750 54.063 C 240.859 54.094,240.931 58.867,240.959 67.838 M242.947 54.484 C 243.389 54.750,245.362 55.886,247.333 57.008 C 249.304 58.131,251.573 59.426,252.375 59.888 L 253.833 60.726 253.833 63.869 C 253.833 66.947,253.827 67.008,253.504 66.835 C 253.323 66.739,251.896 65.913,250.333 65.000 C 248.771 64.087,247.344 63.261,247.163 63.165 C 246.846 62.995,246.833 63.046,246.833 64.473 L 246.833 65.957 248.542 66.944 L 250.250 67.931 250.296 70.652 C 250.333 72.854,250.300 73.356,250.121 73.288 C 250.000 73.241,249.229 72.818,248.409 72.347 L 246.917 71.492 246.872 75.191 C 246.843 77.524,246.760 78.970,246.647 79.107 C 246.397 79.408,242.249 81.833,241.984 81.833 C 241.895 81.833,241.833 76.097,241.833 67.917 C 241.833 59.410,241.894 54.000,241.989 54.000 C 242.075 54.000,242.506 54.218,242.947 54.484 M348.250 68.750 L 348.250 77.417 346.833 77.417 L 345.417 77.417 345.373 68.844 C 345.324 59.095,345.161 59.978,347.000 60.041 L 348.250 60.083 348.250 68.750 M275.500 61.412 L 275.500 62.658 272.875 62.704 L 270.250 62.750 270.167 70.083 L 270.083 77.417 268.681 77.466 C 267.672 77.501,267.240 77.454,267.142 77.299 C 267.067 77.180,267.004 73.840,267.003 69.875 L 267.000 62.667 264.417 62.667 L 261.833 62.667 261.833 61.417 L 261.833 60.167 268.667 60.167 L 275.500 60.167 275.500 61.412 M343.667 61.417 L 343.667 62.667 339.750 62.667 L 335.833 62.667 335.833 65.167 L 335.833 67.667 339.250 67.667 L 342.667 67.667 342.667 68.917 L 342.667 70.167 339.253 70.167 L 335.840 70.167 335.795 73.792 L 335.750 77.417 334.250 77.417 L 332.750 77.417 332.707 69.000 C 332.683 64.371,332.699 60.490,332.743 60.375 C 332.805 60.214,334.061 60.167,338.245 60.167 L 343.667 60.167 343.667 61.417 M140.428 61.015 C 142.555 61.405,145.912 63.845,146.267 65.257 C 146.396 65.772,146.579 65.627,144.606 66.566 L 142.962 67.349 142.060 66.351 C 137.841 61.689,130.751 66.995,133.026 73.111 C 134.512 77.105,140.073 78.099,142.338 74.774 C 142.857 74.011,142.848 74.010,144.748 74.954 C 146.508 75.828,146.541 75.888,145.840 76.907 C 141.691 82.937,131.562 81.382,128.829 74.295 C 125.955 66.843,132.341 59.531,140.428 61.015 M27.833 61.763 C 32.493 63.970,32.493 70.670,27.833 72.899 C 26.758 73.413,26.726 73.417,23.417 73.500 L 20.083 73.583 20.038 76.963 L 19.993 80.344 17.955 80.297 L 15.917 80.250 15.874 70.700 L 15.831 61.150 21.290 61.200 L 26.750 61.250 27.833 61.763 M41.316 62.382 C 41.719 63.043,42.291 63.958,42.587 64.417 C 42.884 64.875,43.557 65.944,44.085 66.792 C 45.119 68.455,45.208 68.526,45.554 67.958 C 46.186 66.920,48.468 63.280,49.108 62.292 L 49.836 61.167 52.168 61.167 C 53.451 61.167,54.500 61.217,54.500 61.278 C 54.500 61.339,53.984 62.183,53.354 63.153 C 52.724 64.123,51.625 65.817,50.912 66.917 C 50.198 68.017,49.120 69.667,48.516 70.583 L 47.417 72.250 47.333 76.250 L 47.250 80.250 45.125 80.297 L 43.000 80.343 43.000 76.494 C 43.000 73.916,42.937 72.525,42.808 72.281 C 42.591 71.868,42.267 71.364,38.525 65.616 C 37.044 63.343,35.833 61.412,35.833 61.325 C 35.833 61.232,36.819 61.169,38.208 61.173 L 40.583 61.180 41.316 62.382 M74.500 62.982 C 74.500 65.171,74.763 65.000,71.403 65.000 L 68.833 65.000 68.833 72.672 L 68.833 80.344 66.792 80.297 L 64.750 80.250 64.707 72.629 L 64.663 65.008 61.957 64.962 L 59.250 64.917 59.203 63.042 L 59.156 61.167 66.828 61.167 L 74.500 61.167 74.500 62.982 M118.417 61.717 C 122.947 63.832,123.250 70.422,118.917 72.618 C 118.458 72.850,118.060 73.060,118.032 73.085 C 117.987 73.125,121.316 78.810,121.957 79.788 C 122.303 80.317,122.134 80.352,119.498 80.297 L 117.264 80.250 116.688 79.250 C 116.051 78.143,115.454 77.067,114.343 75.027 L 113.602 73.667 112.221 73.667 L 110.840 73.667 110.795 76.958 L 110.750 80.250 108.667 80.250 L 106.583 80.250 106.540 70.917 C 106.516 65.783,106.534 61.486,106.580 61.366 C 106.646 61.193,107.743 61.160,112.040 61.200 L 117.417 61.250 118.417 61.717 M157.205 64.875 L 157.250 68.583 161.538 68.628 L 165.827 68.672 165.872 64.961 L 165.917 61.250 168.042 61.203 L 170.167 61.157 170.167 70.750 L 170.167 80.343 168.042 80.297 L 165.917 80.250 165.872 76.292 L 165.827 72.333 161.497 72.333 L 157.167 72.333 157.167 76.333 L 157.167 80.333 155.083 80.333 L 153.000 80.333 153.000 70.750 L 153.000 61.167 155.080 61.167 L 157.160 61.167 157.205 64.875 M281.229 64.840 C 283.080 65.766,284.077 67.686,284.081 70.333 L 284.083 71.917 279.970 72.000 L 275.856 72.083 276.153 72.959 C 276.966 75.361,279.891 75.965,281.792 74.125 L 282.334 73.600 283.038 74.258 C 283.425 74.620,283.801 74.992,283.873 75.083 C 284.165 75.453,282.225 76.973,280.976 77.352 C 275.680 78.961,271.436 74.226,273.163 68.635 C 274.268 65.057,278.079 63.264,281.229 64.840 M294.837 64.792 C 295.526 65.153,295.822 65.445,296.231 66.167 L 296.750 67.083 296.750 72.250 L 296.750 77.417 295.333 77.417 L 293.917 77.417 293.833 72.628 L 293.750 67.840 293.311 67.402 C 292.467 66.558,290.637 66.699,289.711 67.679 L 289.250 68.167 289.167 72.792 L 289.083 77.417 287.667 77.417 L 286.250 77.417 286.250 71.000 L 286.250 64.583 287.625 64.535 L 289.000 64.487 289.000 64.965 C 289.000 65.679,289.136 65.704,289.953 65.142 C 291.373 64.165,293.367 64.022,294.837 64.792 M305.481 64.510 C 307.186 64.903,308.833 66.634,308.833 68.033 L 308.833 68.500 307.359 68.500 L 305.884 68.500 305.628 67.847 C 304.949 66.119,301.667 66.328,301.667 68.100 C 301.667 68.994,302.198 69.278,305.390 70.089 C 310.990 71.512,309.658 77.663,303.750 77.663 C 300.861 77.663,298.177 75.727,298.365 73.779 L 298.417 73.250 299.711 73.201 L 301.006 73.153 301.327 73.901 C 301.978 75.420,304.458 75.888,305.525 74.693 C 306.591 73.500,305.821 72.666,303.083 72.046 C 299.923 71.330,298.502 69.976,298.718 67.884 C 298.986 65.286,302.102 63.731,305.481 64.510 M318.976 64.920 C 323.160 67.197,323.337 74.581,319.264 76.907 C 313.055 80.454,307.194 72.071,311.797 66.227 C 313.256 64.375,316.792 63.731,318.976 64.920 M330.750 65.833 L 330.750 67.250 329.917 67.261 C 327.104 67.299,327.103 67.302,327.000 72.888 L 326.917 77.417 325.500 77.417 L 324.083 77.417 324.040 70.958 L 323.996 64.500 325.415 64.500 L 326.833 64.500 326.833 65.098 L 326.833 65.696 327.375 65.240 C 328.186 64.556,328.818 64.335,329.833 64.378 L 330.750 64.417 330.750 65.833 M358.902 64.841 C 363.456 67.119,363.472 74.862,358.928 77.085 C 353.823 79.583,348.790 74.335,350.674 68.478 C 351.794 64.993,355.729 63.254,358.902 64.841 M365.762 64.958 C 365.817 65.210,365.961 65.754,366.081 66.167 C 366.201 66.579,366.501 67.817,366.748 68.917 C 366.995 70.017,367.314 71.329,367.456 71.833 C 367.765 72.926,367.695 73.058,368.754 69.417 C 369.180 67.950,369.694 66.262,369.896 65.667 L 370.262 64.583 371.372 64.534 L 372.481 64.485 373.000 66.201 C 373.285 67.145,373.773 68.742,374.083 69.750 C 374.393 70.758,374.736 71.921,374.846 72.333 C 375.069 73.172,375.068 73.172,375.396 71.667 C 377.082 63.921,376.832 64.500,378.487 64.500 C 380.073 64.500,380.063 64.488,379.666 65.843 C 379.364 66.876,379.088 67.888,377.415 74.083 C 376.450 77.657,376.606 77.407,375.300 77.465 C 373.992 77.524,374.072 77.616,373.306 75.167 C 372.976 74.112,372.418 72.331,372.066 71.208 C 371.484 69.354,371.167 68.726,371.167 69.430 C 371.167 69.575,370.986 70.232,370.765 70.889 C 370.543 71.546,370.050 73.133,369.669 74.417 C 368.668 77.783,368.855 77.500,367.629 77.497 C 366.122 77.494,366.416 78.149,364.184 69.833 C 363.803 68.412,363.343 66.757,363.162 66.155 C 362.648 64.444,362.612 64.500,364.247 64.500 C 365.653 64.500,365.661 64.502,365.762 64.958 M20.057 65.092 C 20.020 65.188,20.011 66.276,20.037 67.508 L 20.083 69.750 22.583 69.750 C 24.917 69.750,25.125 69.724,25.712 69.359 C 27.008 68.553,27.248 66.672,26.191 65.614 L 25.661 65.083 22.892 65.000 C 21.037 64.944,20.101 64.974,20.057 65.092 M110.667 67.432 L 110.667 69.863 113.208 69.804 C 116.620 69.725,117.600 69.164,117.571 67.305 C 117.543 65.452,116.694 65.000,113.239 65.000 L 110.667 65.000 110.667 67.432 M88.879 66.340 C 86.580 66.800,84.833 69.027,84.833 71.499 C 84.833 77.170,91.852 78.877,94.432 73.833 C 96.324 70.135,92.913 65.534,88.879 66.340 M277.333 67.195 C 276.749 67.586,276.000 68.808,276.000 69.369 C 276.000 69.642,276.213 69.667,278.583 69.667 L 281.167 69.667 281.167 69.243 C 281.167 67.392,278.870 66.165,277.333 67.195 M314.829 67.159 C 312.618 68.328,312.846 73.993,315.142 74.952 C 317.463 75.922,319.083 74.297,319.083 71.000 C 319.083 67.562,317.230 65.889,314.829 67.159 M354.828 67.208 C 352.944 68.481,352.843 73.368,354.672 74.671 C 357.416 76.625,360.120 73.125,359.015 69.049 C 358.498 67.145,356.332 66.192,354.828 67.208 " stroke="none" fill="#fbfbfb" fill-rule="evenodd"></path><path id="path1" d="M262.068 60.563 C 262.020 60.689,262.003 61.158,262.032 61.605 L 262.083 62.417 264.667 62.500 L 267.250 62.583 267.293 69.875 L 267.337 77.167 268.668 77.167 L 270.000 77.167 270.000 69.838 L 270.000 62.508 272.625 62.463 L 275.250 62.417 275.300 61.375 L 275.349 60.333 268.753 60.333 C 263.305 60.333,262.141 60.373,262.068 60.563 M333.000 68.750 L 333.000 77.167 334.250 77.167 L 335.500 77.167 335.500 73.847 C 335.500 69.522,335.052 70.000,339.109 70.000 L 342.516 70.000 342.466 68.958 L 342.417 67.917 339.000 67.833 L 335.583 67.750 335.535 65.500 C 335.464 62.149,334.983 62.514,339.544 62.461 L 343.417 62.417 343.466 61.375 L 343.516 60.333 338.258 60.333 L 333.000 60.333 333.000 68.750 M345.667 68.750 L 345.667 77.167 346.917 77.167 L 348.167 77.167 348.167 68.750 L 348.167 60.333 346.917 60.333 L 345.667 60.333 345.667 68.750 M137.000 61.100 C 129.772 62.426,126.309 68.926,129.461 75.250 C 132.437 81.223,141.530 82.243,145.503 77.049 C 146.381 75.900,146.403 75.946,144.565 75.087 L 142.963 74.339 142.248 75.134 C 137.703 80.189,130.180 74.253,133.013 67.848 C 134.654 64.139,139.779 63.262,142.286 66.261 C 143.036 67.158,142.916 67.156,144.706 66.306 C 146.395 65.503,146.361 65.580,145.520 64.451 C 143.673 61.970,140.041 60.542,137.000 61.100 M16.000 70.750 L 16.000 80.167 17.913 80.167 L 19.826 80.167 19.872 76.792 L 19.917 73.417 23.250 73.322 C 25.793 73.250,26.761 73.160,27.333 72.945 C 31.787 71.271,32.522 65.010,28.573 62.388 C 27.150 61.443,26.387 61.339,20.875 61.336 L 16.000 61.333 16.000 70.750 M36.167 61.495 C 36.167 61.584,36.890 62.765,37.775 64.120 C 38.659 65.475,39.942 67.446,40.625 68.500 C 41.308 69.554,42.160 70.860,42.517 71.401 L 43.167 72.385 43.167 76.281 L 43.167 80.177 45.125 80.130 L 47.083 80.083 47.167 76.083 L 47.250 72.083 47.778 71.333 C 48.257 70.652,50.429 67.333,53.133 63.151 C 53.702 62.272,54.167 61.504,54.167 61.443 C 54.167 61.383,53.231 61.333,52.088 61.333 C 49.632 61.333,50.220 60.826,47.366 65.406 C 46.285 67.141,45.325 68.586,45.234 68.617 C 45.074 68.670,44.561 67.937,42.999 65.417 C 42.601 64.775,42.039 63.875,41.750 63.417 C 41.461 62.958,41.056 62.302,40.849 61.958 L 40.473 61.333 38.320 61.333 C 37.041 61.333,36.167 61.399,36.167 61.495 M59.333 62.994 L 59.333 64.658 62.042 64.704 L 64.750 64.750 64.833 72.417 L 64.917 80.083 66.790 80.130 L 68.663 80.178 68.707 72.464 L 68.750 64.750 71.548 64.704 L 74.345 64.659 74.298 63.038 L 74.250 61.417 66.792 61.373 L 59.333 61.330 59.333 62.994 M106.778 61.444 C 106.617 61.606,106.646 79.709,106.808 79.964 C 106.908 80.122,107.420 80.166,108.763 80.131 L 110.583 80.083 110.667 76.750 L 110.750 73.417 112.083 73.374 C 113.823 73.318,113.329 72.746,116.389 78.363 C 116.605 78.759,116.924 79.327,117.099 79.624 L 117.417 80.165 119.643 80.166 C 121.440 80.166,121.852 80.123,121.783 79.942 C 121.736 79.819,120.828 78.268,119.765 76.496 C 117.548 72.798,117.599 72.968,118.582 72.593 C 123.469 70.726,122.489 62.581,117.250 61.529 C 116.211 61.320,106.977 61.246,106.778 61.444 M153.167 70.750 L 153.167 80.167 155.083 80.167 L 157.000 80.167 157.000 76.164 L 157.000 72.161 161.542 72.206 L 166.083 72.250 166.128 76.208 L 166.173 80.167 168.086 80.167 L 170.000 80.167 170.000 70.750 L 170.000 61.333 168.083 61.333 L 166.167 61.333 166.167 64.982 C 166.167 68.156,166.132 68.644,165.903 68.732 C 165.559 68.864,157.608 68.864,157.264 68.732 C 157.034 68.644,157.000 68.156,157.000 64.982 L 157.000 61.333 155.083 61.333 L 153.167 61.333 153.167 70.750 M277.307 64.724 C 271.922 65.922,271.489 75.307,276.738 77.059 C 278.735 77.726,281.478 77.279,282.909 76.055 C 283.824 75.273,283.826 75.221,282.985 74.522 L 282.309 73.961 281.863 74.378 C 279.854 76.257,276.527 75.409,275.836 72.843 C 275.507 71.621,275.352 71.667,279.843 71.667 L 283.864 71.667 283.807 69.958 C 283.676 66.017,281.039 63.894,277.307 64.724 M291.361 64.754 C 290.872 64.889,290.153 65.262,289.763 65.582 C 288.973 66.229,288.833 66.200,288.833 65.389 L 288.833 64.833 287.583 64.833 L 286.333 64.833 286.333 71.000 L 286.333 77.167 287.667 77.167 L 289.000 77.167 289.000 72.719 C 289.000 67.202,289.291 66.577,291.847 66.616 C 293.875 66.646,294.068 67.159,294.138 72.708 L 294.195 77.167 295.431 77.167 L 296.667 77.167 296.664 72.875 C 296.660 67.792,296.489 66.604,295.627 65.699 C 294.650 64.672,292.988 64.303,291.361 64.754 M302.367 64.686 C 299.672 65.134,298.280 67.368,299.244 69.696 C 299.446 70.184,300.794 71.109,301.705 71.385 C 302.188 71.531,303.237 71.846,304.036 72.084 C 305.587 72.546,306.167 73.008,306.167 73.781 C 306.167 75.899,302.051 76.206,301.189 74.152 L 300.917 73.503 299.695 73.502 L 298.474 73.500 298.586 74.042 C 299.555 78.704,308.667 78.440,308.667 73.750 C 308.667 71.846,307.711 71.005,304.500 70.083 C 301.657 69.267,300.975 68.695,301.519 67.584 C 302.349 65.889,305.529 66.068,305.916 67.831 L 306.026 68.333 307.268 68.333 C 310.119 68.333,308.025 65.196,304.828 64.677 C 303.621 64.482,303.595 64.482,302.367 64.686 M314.695 64.749 C 309.397 65.934,308.921 75.331,314.071 77.058 C 317.847 78.324,321.271 76.226,321.850 72.292 C 322.600 67.202,319.296 63.719,314.695 64.749 M328.627 64.766 C 328.123 64.921,327.704 65.189,327.470 65.505 C 326.998 66.144,326.873 66.129,326.739 65.417 L 326.630 64.833 325.398 64.833 L 324.167 64.833 324.167 71.000 L 324.167 77.167 325.500 77.167 L 326.833 77.167 326.833 72.734 L 326.833 68.300 327.371 67.799 C 328.073 67.142,328.484 67.000,329.678 67.000 L 330.667 67.000 330.667 65.854 L 330.667 64.708 330.146 64.604 C 329.513 64.478,329.593 64.469,328.627 64.766 M355.009 64.689 C 349.572 65.591,348.863 75.179,354.097 77.019 C 358.415 78.537,362.000 75.800,362.000 70.987 C 362.000 66.495,359.220 63.991,355.009 64.689 M25.183 64.862 C 27.553 65.679,27.799 68.459,25.605 69.622 C 25.051 69.916,21.101 70.145,20.254 69.933 L 19.833 69.827 19.833 67.358 C 19.833 66.000,19.883 64.839,19.944 64.778 C 20.138 64.584,24.585 64.656,25.183 64.862 M116.305 65.101 C 118.161 66.025,118.214 68.709,116.395 69.588 C 115.718 69.916,111.828 70.160,110.921 69.933 L 110.500 69.827 110.500 67.510 C 110.500 64.395,110.255 64.667,113.068 64.667 C 115.283 64.667,115.490 64.694,116.305 65.101 M363.246 65.617 C 363.312 66.057,363.447 66.567,363.545 66.750 C 363.643 66.933,363.934 67.908,364.192 68.917 C 364.718 70.970,365.864 75.188,366.207 76.333 L 366.431 77.083 367.490 77.083 L 368.549 77.083 368.938 75.917 C 369.362 74.644,370.250 71.790,370.821 69.864 C 371.284 68.305,371.448 68.380,372.048 70.427 C 372.316 71.338,372.634 72.346,372.756 72.667 C 372.878 72.987,373.140 73.813,373.337 74.500 C 373.535 75.188,373.812 76.069,373.954 76.458 L 374.212 77.167 375.269 77.167 C 376.287 77.167,376.331 77.150,376.428 76.708 C 376.484 76.456,376.650 75.875,376.797 75.417 C 376.944 74.958,377.300 73.683,377.588 72.583 C 378.659 68.502,379.188 66.564,379.424 65.869 C 379.785 64.805,379.795 64.814,378.375 64.868 C 377.137 64.915,377.081 64.934,377.033 65.333 C 376.978 65.786,376.348 68.642,375.948 70.250 C 375.811 70.800,375.606 71.721,375.492 72.298 C 375.158 73.989,375.105 73.896,373.578 68.917 C 373.353 68.183,372.994 66.983,372.781 66.250 L 372.392 64.917 371.377 64.867 L 370.361 64.818 370.088 65.784 C 369.938 66.315,369.777 66.900,369.731 67.083 C 369.685 67.267,369.546 67.679,369.423 68.000 C 369.300 68.321,369.037 69.183,368.839 69.917 C 368.126 72.552,367.621 73.645,367.432 72.958 C 367.401 72.844,367.060 71.362,366.675 69.667 C 366.290 67.971,365.887 66.208,365.778 65.750 L 365.581 64.917 364.354 64.867 L 363.127 64.818 363.246 65.617 M279.714 66.729 C 280.463 67.048,280.911 67.605,281.245 68.631 C 281.680 69.971,281.623 70.001,278.605 69.997 C 275.628 69.994,275.637 69.997,275.853 68.983 C 276.241 67.161,278.135 66.056,279.714 66.729 M317.308 66.759 C 319.901 67.797,320.257 73.356,317.833 74.973 C 316.287 76.004,313.856 75.059,313.348 73.229 C 312.223 69.178,314.412 65.601,317.308 66.759 M357.831 66.967 C 360.799 69.141,359.734 75.333,356.393 75.333 C 354.185 75.333,353.167 73.965,353.167 71.000 C 353.167 67.500,355.639 65.362,357.831 66.967 " stroke="none" fill="#3c434b" fill-rule="evenodd"></path><path id="path2" d="M86.723 52.303 C 86.265 52.598,85.655 54.230,82.758 62.917 C 79.885 71.531,79.751 73.181,81.683 76.192 C 86.103 83.081,96.885 81.665,99.011 73.917 C 99.998 70.319,98.739 64.139,96.287 60.548 C 95.057 58.745,94.895 58.755,93.693 60.708 C 92.047 63.381,90.570 62.416,89.325 57.851 C 88.131 53.474,87.383 51.878,86.723 52.303 M242.000 67.928 L 242.000 81.815 242.958 81.267 C 243.485 80.965,244.535 80.353,245.292 79.907 L 246.667 79.097 246.667 75.215 C 246.667 73.080,246.698 71.333,246.737 71.333 C 246.775 71.333,247.521 71.746,248.395 72.250 C 249.268 72.754,250.026 73.167,250.079 73.167 C 250.132 73.167,250.154 71.989,250.129 70.549 L 250.083 67.931 248.375 66.944 L 246.667 65.957 246.667 64.381 L 246.667 62.805 247.375 63.206 C 247.765 63.427,249.345 64.333,250.887 65.220 C 252.429 66.107,253.723 66.833,253.762 66.833 C 253.801 66.833,253.831 65.465,253.828 63.792 L 253.823 60.750 251.203 59.286 C 249.762 58.481,247.102 56.971,245.292 55.931 L 242.000 54.040 242.000 67.928 M234.750 57.443 C 231.633 59.236,229.062 60.722,229.037 60.745 C 228.912 60.859,228.800 66.833,228.923 66.833 C 229.001 66.833,230.572 65.971,232.413 64.917 C 234.254 63.862,235.852 63.000,235.964 63.000 C 236.120 63.000,236.167 64.841,236.167 71.077 L 236.167 79.154 238.195 80.350 C 239.310 81.008,240.360 81.582,240.528 81.626 C 240.822 81.703,240.833 81.200,240.833 67.936 C 240.833 57.027,240.790 54.168,240.625 54.175 C 240.510 54.180,237.867 55.650,234.750 57.443 M91.917 66.647 C 97.052 69.111,95.465 76.929,89.833 76.913 C 83.840 76.897,82.731 68.084,88.500 66.323 C 89.489 66.021,90.888 66.153,91.917 66.647 " stroke="none" fill="#f87618" fill-rule="evenodd"></path><path id="path3" d="M92.221 50.958 C 91.414 52.604,91.621 53.699,92.783 53.932 C 94.092 54.193,94.521 52.763,93.654 51.027 C 93.019 49.757,92.815 49.747,92.221 50.958 M262.033 60.309 C 261.882 60.405,261.831 60.773,261.866 61.515 L 261.917 62.583 264.542 62.629 L 267.167 62.675 267.167 70.011 L 267.167 77.346 268.625 77.298 L 270.083 77.250 270.127 69.963 L 270.170 62.675 272.793 62.629 L 275.417 62.583 275.434 61.417 L 275.451 60.250 275.351 61.333 L 275.250 62.417 272.625 62.463 L 270.000 62.508 270.000 69.838 L 270.000 77.167 268.668 77.167 L 267.337 77.167 267.293 69.875 L 267.250 62.583 264.667 62.500 L 262.083 62.417 262.032 61.505 C 261.991 60.789,262.043 60.548,262.272 60.380 C 262.590 60.147,262.385 60.086,262.033 60.309 M332.944 60.278 C 332.883 60.339,332.833 64.204,332.833 68.868 L 332.833 77.346 334.292 77.298 L 335.750 77.250 335.791 73.583 C 335.818 71.141,335.778 70.000,335.669 70.167 C 335.576 70.309,335.504 71.871,335.503 73.792 L 335.500 77.167 334.250 77.167 L 333.000 77.167 333.000 68.764 C 333.000 62.198,333.046 60.343,333.208 60.277 C 333.325 60.230,333.337 60.187,333.236 60.180 C 333.137 60.173,333.006 60.217,332.944 60.278 M343.301 60.294 C 343.449 60.399,343.502 60.763,343.467 61.432 L 343.417 62.417 339.544 62.461 C 334.983 62.514,335.464 62.149,335.535 65.500 L 335.583 67.750 339.000 67.833 L 342.417 67.917 342.517 69.000 L 342.618 70.083 342.601 68.917 L 342.583 67.750 339.208 67.705 L 335.833 67.660 335.833 65.166 L 335.833 62.673 339.708 62.628 L 343.583 62.583 343.583 61.431 C 343.583 60.547,343.525 60.262,343.333 60.210 C 343.139 60.157,343.132 60.175,343.301 60.294 M345.500 68.750 L 345.500 77.347 346.875 77.298 L 348.250 77.250 348.250 68.750 L 348.250 60.250 346.875 60.202 L 345.500 60.153 345.500 68.750 M348.167 68.750 L 348.167 77.167 346.917 77.167 L 345.667 77.167 345.667 68.750 L 345.667 60.333 346.917 60.333 L 348.167 60.333 348.167 68.750 M59.240 63.000 L 59.250 64.750 62.026 64.833 C 63.553 64.879,64.767 64.860,64.725 64.792 C 64.682 64.723,63.454 64.667,61.996 64.667 L 59.345 64.667 59.288 62.958 L 59.231 61.250 59.240 63.000 M153.078 70.750 C 153.078 75.975,153.099 78.088,153.125 75.446 C 153.151 72.805,153.151 68.530,153.125 65.946 C 153.099 63.363,153.078 65.525,153.078 70.750 M166.071 65.000 C 166.071 67.063,166.095 67.906,166.124 66.875 C 166.154 65.844,166.154 64.156,166.124 63.125 C 166.095 62.094,166.071 62.938,166.071 65.000 M170.078 70.750 C 170.078 75.975,170.099 78.088,170.125 75.446 C 170.151 72.805,170.151 68.530,170.125 65.946 C 170.099 63.363,170.078 65.525,170.078 70.750 M157.071 65.083 C 157.071 67.100,157.095 67.902,157.125 66.866 C 157.154 65.829,157.154 64.179,157.124 63.199 C 157.095 62.219,157.071 63.067,157.071 65.083 M292.833 64.487 C 293.154 64.565,293.705 64.680,294.057 64.742 C 294.472 64.815,294.966 65.099,295.465 65.552 C 296.161 66.184,296.199 66.200,295.865 65.723 C 295.401 65.057,294.347 64.555,293.167 64.437 C 292.454 64.366,292.380 64.377,292.833 64.487 M316.333 64.488 C 317.246 64.706,318.466 64.841,318.083 64.683 C 317.900 64.607,317.300 64.501,316.750 64.448 C 316.039 64.378,315.918 64.390,316.333 64.488 M329.750 64.500 C 329.933 64.579,330.233 64.641,330.417 64.638 C 330.685 64.634,330.668 64.607,330.333 64.500 C 329.763 64.317,329.325 64.317,329.750 64.500 M355.333 64.500 C 354.771 64.618,354.768 64.623,355.250 64.625 C 355.525 64.626,355.975 64.570,356.250 64.500 C 356.942 64.324,356.170 64.324,355.333 64.500 M279.375 64.615 C 279.535 64.657,279.798 64.657,279.958 64.615 C 280.119 64.573,279.987 64.539,279.667 64.539 C 279.346 64.539,279.215 64.573,279.375 64.615 M290.917 64.744 C 290.275 65.038,290.386 65.040,291.417 64.754 C 291.921 64.614,292.086 64.521,291.833 64.519 C 291.604 64.517,291.192 64.618,290.917 64.744 M302.375 64.615 C 302.535 64.657,302.798 64.657,302.958 64.615 C 303.119 64.573,302.987 64.539,302.667 64.539 C 302.346 64.539,302.215 64.573,302.375 64.615 M304.860 64.656 C 305.287 64.736,305.812 64.850,306.027 64.909 C 306.358 65.000,306.373 64.988,306.126 64.834 C 305.966 64.733,305.441 64.620,304.959 64.581 L 304.083 64.511 304.860 64.656 M314.417 64.671 C 314.194 64.770,314.333 64.786,314.833 64.719 C 315.246 64.665,315.615 64.593,315.653 64.560 C 315.798 64.435,314.735 64.530,314.417 64.671 M328.375 64.672 C 327.845 64.885,327.908 65.012,328.458 64.838 C 329.399 64.540,329.426 64.526,329.083 64.524 C 328.900 64.522,328.581 64.589,328.375 64.672 M357.750 64.745 C 358.300 64.864,358.776 64.938,358.807 64.910 C 358.909 64.817,357.597 64.501,357.167 64.515 C 356.938 64.522,357.200 64.626,357.750 64.745 M19.907 64.883 C 19.861 65.001,19.847 66.183,19.875 67.508 L 19.927 69.917 19.963 67.379 L 20.000 64.842 22.458 64.791 L 24.917 64.740 22.453 64.704 C 20.562 64.675,19.970 64.717,19.907 64.883 M68.743 64.875 C 68.699 64.990,68.683 68.496,68.708 72.667 L 68.753 80.250 68.793 72.546 L 68.833 64.841 71.625 64.791 L 74.417 64.741 71.620 64.704 C 69.508 64.676,68.803 64.718,68.743 64.875 M111.883 64.791 C 112.597 64.822,113.722 64.822,114.383 64.790 C 115.043 64.759,114.458 64.733,113.083 64.733 C 111.708 64.734,111.168 64.759,111.883 64.791 M287.542 64.791 L 288.833 64.847 288.833 65.414 C 288.833 66.205,288.998 66.230,289.756 65.552 C 290.120 65.227,290.267 65.060,290.083 65.181 C 289.900 65.302,289.581 65.549,289.375 65.729 L 289.000 66.058 289.000 65.362 L 289.000 64.667 287.625 64.700 L 286.250 64.734 287.542 64.791 M324.076 64.876 C 324.032 64.991,324.015 67.822,324.040 71.167 L 324.083 77.250 325.500 77.250 L 326.917 77.250 327.007 72.667 C 327.056 70.146,327.113 68.079,327.132 68.073 C 327.151 68.067,327.410 67.882,327.708 67.662 C 328.119 67.358,328.553 67.236,329.500 67.156 L 330.750 67.050 329.719 67.025 C 328.495 66.995,328.087 67.130,327.371 67.799 L 326.833 68.300 326.833 72.734 L 326.833 77.167 325.500 77.167 L 324.167 77.167 324.167 71.000 L 324.167 64.833 325.405 64.833 C 326.557 64.833,326.649 64.860,326.716 65.208 C 326.778 65.530,326.791 65.518,326.811 65.125 L 326.833 64.667 325.495 64.667 C 324.575 64.667,324.131 64.732,324.076 64.876 M363.019 65.042 C 363.035 65.343,363.054 65.357,363.117 65.112 C 363.186 64.846,363.349 64.815,364.432 64.862 C 365.111 64.892,365.667 64.860,365.667 64.792 C 365.667 64.723,365.067 64.667,364.333 64.667 C 363.056 64.667,363.001 64.682,363.019 65.042 M370.243 64.844 C 370.183 64.942,370.178 65.067,370.233 65.122 C 370.288 65.177,370.333 65.135,370.333 65.028 C 370.333 64.618,372.325 64.785,372.495 65.208 C 372.578 65.415,372.650 65.496,372.656 65.389 C 372.688 64.797,372.462 64.667,371.409 64.667 C 370.828 64.667,370.304 64.747,370.243 64.844 M377.109 64.792 C 377.067 64.860,377.662 64.917,378.433 64.917 C 379.203 64.917,379.833 64.860,379.833 64.792 C 379.833 64.723,379.238 64.667,378.510 64.667 C 377.782 64.667,377.152 64.723,377.109 64.792 M110.567 67.417 C 110.567 68.792,110.593 69.332,110.624 68.617 C 110.655 67.903,110.655 66.778,110.624 66.117 C 110.592 65.457,110.566 66.042,110.567 67.417 M281.890 65.507 C 282.242 65.805,282.747 66.394,283.012 66.816 C 283.277 67.238,283.495 67.506,283.497 67.412 C 283.504 67.014,282.182 65.442,281.583 65.136 C 281.400 65.042,281.538 65.209,281.890 65.507 M306.750 65.238 C 307.415 65.759,307.893 66.260,308.193 66.750 C 308.361 67.025,308.499 67.171,308.499 67.075 C 308.501 66.731,307.520 65.579,306.973 65.280 C 306.602 65.077,306.528 65.063,306.750 65.238 M312.706 65.491 C 311.976 66.019,311.113 67.161,310.935 67.833 C 310.875 68.063,310.986 67.929,311.183 67.537 C 311.576 66.756,312.106 66.148,313.000 65.456 C 313.785 64.848,313.556 64.875,312.706 65.491 M319.734 65.681 C 320.184 66.079,320.765 66.740,321.026 67.151 C 321.287 67.562,321.500 67.826,321.500 67.736 C 321.500 67.328,320.247 65.862,319.417 65.298 C 319.142 65.112,319.285 65.284,319.734 65.681 M327.250 65.500 C 326.987 65.775,326.846 66.000,326.937 66.000 C 327.029 66.000,327.270 65.775,327.474 65.500 C 327.677 65.225,327.818 65.000,327.786 65.000 C 327.755 65.000,327.513 65.225,327.250 65.500 M352.509 65.774 C 351.794 66.417,350.625 68.167,350.911 68.167 C 350.957 68.167,351.176 67.810,351.399 67.375 C 351.796 66.599,352.509 65.822,353.329 65.275 C 353.555 65.124,353.657 65.000,353.555 65.000 C 353.453 65.000,352.982 65.348,352.509 65.774 M359.333 65.271 C 359.563 65.434,360.079 65.909,360.482 66.325 C 360.885 66.742,361.135 66.933,361.038 66.750 C 360.810 66.318,360.050 65.619,359.417 65.259 C 358.928 64.981,358.926 64.981,359.333 65.271 M274.992 65.777 C 274.620 66.113,274.237 66.544,274.140 66.736 C 274.043 66.927,274.178 66.837,274.440 66.535 C 274.702 66.233,275.142 65.805,275.417 65.583 C 275.692 65.360,275.861 65.176,275.792 65.173 C 275.724 65.169,275.363 65.441,274.992 65.777 M299.873 65.745 C 299.059 66.502,299.246 66.506,300.095 65.750 C 300.455 65.429,300.693 65.167,300.623 65.167 C 300.552 65.167,300.215 65.427,299.873 65.745 M141.500 65.552 C 141.500 65.581,141.744 65.825,142.042 66.094 L 142.583 66.583 142.094 66.042 C 141.638 65.537,141.500 65.423,141.500 65.552 M379.168 66.692 C 379.065 67.090,378.903 67.665,378.807 67.970 C 378.712 68.274,378.669 68.558,378.712 68.601 C 378.756 68.645,378.949 68.100,379.142 67.392 C 379.334 66.683,379.461 66.072,379.424 66.035 C 379.386 65.997,379.271 66.293,379.168 66.692 M303.375 66.448 C 303.535 66.490,303.798 66.490,303.958 66.448 C 304.119 66.406,303.987 66.372,303.667 66.372 C 303.346 66.372,303.215 66.406,303.375 66.448 M278.460 66.618 C 278.668 66.658,278.968 66.656,279.127 66.615 C 279.286 66.573,279.117 66.540,278.750 66.542 C 278.383 66.544,278.253 66.578,278.460 66.618 M302.002 66.958 C 301.277 67.619,301.186 68.319,301.747 68.931 L 302.191 69.417 301.819 68.882 C 301.331 68.180,301.522 67.417,302.322 66.878 C 302.630 66.670,302.798 66.500,302.694 66.500 C 302.590 66.500,302.279 66.706,302.002 66.958 M315.960 66.618 C 316.168 66.658,316.468 66.656,316.627 66.615 C 316.786 66.573,316.617 66.540,316.250 66.542 C 315.883 66.544,315.753 66.578,315.960 66.618 M355.960 66.618 C 356.168 66.658,356.468 66.656,356.627 66.615 C 356.786 66.573,356.617 66.540,356.250 66.542 C 355.883 66.544,355.753 66.578,355.960 66.618 M369.514 67.184 C 369.402 67.560,369.273 67.991,369.228 68.142 C 369.182 68.293,369.254 68.229,369.386 68.000 C 369.629 67.580,369.920 66.500,369.790 66.500 C 369.751 66.500,369.627 66.808,369.514 67.184 M142.701 66.913 C 142.939 67.173,143.048 67.192,143.368 67.028 L 143.750 66.832 143.367 66.930 C 143.156 66.983,142.856 66.932,142.700 66.815 C 142.435 66.615,142.435 66.622,142.701 66.913 M277.126 67.042 C 276.910 67.248,276.850 67.333,276.992 67.232 C 277.134 67.130,277.400 66.963,277.583 66.862 C 277.767 66.760,277.827 66.675,277.718 66.672 C 277.608 66.669,277.342 66.835,277.126 67.042 M279.939 66.986 C 280.226 67.161,280.582 67.478,280.731 67.689 C 280.879 67.901,281.000 67.990,281.000 67.888 C 281.000 67.650,279.888 66.666,279.619 66.667 C 279.508 66.668,279.652 66.811,279.939 66.986 M292.663 66.853 C 292.891 66.943,293.194 67.107,293.338 67.217 C 293.482 67.327,293.423 67.248,293.207 67.042 C 292.991 66.835,292.688 66.671,292.532 66.677 C 292.345 66.684,292.388 66.743,292.663 66.853 M357.417 66.861 C 357.600 66.962,357.941 67.203,358.174 67.397 C 358.408 67.591,358.353 67.506,358.052 67.208 C 357.751 66.910,357.410 66.669,357.294 66.672 C 357.178 66.675,357.233 66.760,357.417 66.861 M27.039 67.333 C 27.039 67.654,27.073 67.785,27.115 67.625 C 27.157 67.465,27.157 67.202,27.115 67.042 C 27.073 66.881,27.039 67.012,27.039 67.333 M290.083 67.022 C 289.900 67.113,289.607 67.390,289.431 67.636 C 289.118 68.076,289.122 68.075,289.681 67.585 C 289.994 67.310,290.321 67.029,290.408 66.960 C 290.617 66.793,290.495 66.817,290.083 67.022 M314.219 67.375 C 313.660 67.966,313.331 68.521,313.337 68.864 C 313.339 68.985,313.478 68.780,313.647 68.410 C 313.815 68.039,314.194 67.533,314.489 67.285 C 314.784 67.036,314.960 66.833,314.879 66.833 C 314.798 66.833,314.501 67.077,314.219 67.375 M363.508 66.917 C 363.506 67.008,363.617 67.421,363.755 67.833 L 364.004 68.583 363.904 67.917 C 363.810 67.294,363.513 66.546,363.508 66.917 M273.490 67.940 C 273.308 68.366,273.187 68.742,273.222 68.778 C 273.257 68.813,273.442 68.464,273.634 68.004 C 273.825 67.543,273.946 67.167,273.902 67.167 C 273.857 67.167,273.672 67.515,273.490 67.940 M361.633 68.383 C 361.981 69.419,362.026 69.817,361.973 71.374 C 361.939 72.362,361.963 73.038,362.027 72.876 C 362.429 71.861,361.925 67.616,361.362 67.268 C 361.291 67.224,361.413 67.726,361.633 68.383 M366.186 67.500 C 366.179 67.637,366.316 68.275,366.489 68.917 C 366.662 69.558,366.808 69.971,366.814 69.833 C 366.821 69.696,366.684 69.058,366.511 68.417 C 366.338 67.775,366.192 67.362,366.186 67.500 M373.185 67.583 C 373.183 67.767,373.288 68.142,373.417 68.417 L 373.653 68.917 373.552 68.417 C 373.496 68.142,373.391 67.767,373.319 67.583 L 373.188 67.250 373.185 67.583 M353.762 67.976 C 353.385 68.705,353.440 68.850,353.843 68.190 C 354.031 67.881,354.149 67.593,354.105 67.549 C 354.061 67.505,353.907 67.697,353.762 67.976 M276.105 68.228 C 275.956 68.543,275.835 68.902,275.837 69.025 C 275.839 69.149,275.990 68.920,276.173 68.517 C 276.356 68.114,276.477 67.755,276.441 67.719 C 276.406 67.684,276.255 67.913,276.105 68.228 M318.607 67.917 C 318.668 68.100,318.865 68.662,319.044 69.167 C 319.795 71.275,319.019 74.195,317.506 74.958 C 317.097 75.165,316.880 75.333,317.023 75.333 C 318.937 75.333,320.180 70.936,318.956 68.500 C 318.703 67.996,318.545 67.733,318.607 67.917 M376.190 68.607 C 376.086 69.129,376.031 69.587,376.069 69.624 C 376.107 69.662,376.226 69.269,376.333 68.750 C 376.441 68.231,376.496 67.774,376.455 67.733 C 376.414 67.692,376.295 68.086,376.190 68.607 M293.922 68.732 C 293.965 69.180,294.000 71.302,294.000 73.447 L 294.000 77.347 295.375 77.298 L 296.750 77.250 296.754 72.833 L 296.759 68.417 296.710 72.792 L 296.661 77.167 295.414 77.167 L 294.167 77.167 294.157 73.208 C 294.152 71.031,294.079 68.950,293.996 68.583 C 293.845 67.924,293.844 67.925,293.922 68.732 M321.576 68.235 C 321.631 68.410,321.758 69.104,321.859 69.777 C 322.030 70.929,321.902 72.737,321.576 73.765 C 321.487 74.044,321.497 74.049,321.654 73.807 C 322.038 73.213,322.236 71.064,322.030 69.735 C 321.922 69.039,321.752 68.345,321.654 68.193 C 321.497 67.951,321.487 67.956,321.576 68.235 M358.933 68.532 C 359.089 68.834,359.267 69.755,359.342 70.657 L 359.476 72.250 359.430 70.666 C 359.389 69.242,359.068 68.000,358.741 68.000 C 358.696 68.000,358.782 68.239,358.933 68.532 M289.039 72.618 L 289.000 77.153 287.625 77.209 L 286.250 77.265 287.630 77.299 C 289.334 77.341,289.182 77.828,289.125 72.497 L 289.078 68.083 289.039 72.618 M307.250 68.333 L 305.917 68.439 307.292 68.469 C 308.118 68.488,308.667 68.433,308.667 68.333 C 308.667 68.242,308.648 68.180,308.625 68.197 C 308.602 68.214,307.983 68.275,307.250 68.333 M159.365 68.791 C 160.529 68.820,162.479 68.820,163.698 68.791 C 164.918 68.763,163.967 68.739,161.583 68.739 C 159.200 68.739,158.202 68.763,159.365 68.791 M281.213 69.167 L 281.250 69.750 278.583 69.840 L 275.917 69.930 278.521 69.965 C 281.438 70.004,281.689 69.923,281.354 69.047 C 281.176 68.584,281.176 68.584,281.213 69.167 M370.916 69.502 C 370.760 69.971,370.667 70.390,370.710 70.432 C 370.753 70.475,370.883 70.168,371.000 69.750 C 371.286 68.727,371.426 68.696,371.655 69.606 C 371.761 70.028,371.882 70.341,371.922 70.300 C 372.052 70.170,371.583 68.778,371.388 68.713 C 371.284 68.678,371.072 69.033,370.916 69.502 M283.833 70.247 L 283.833 71.661 279.792 71.705 L 275.750 71.750 275.728 72.128 C 275.709 72.442,275.718 72.449,275.781 72.169 C 275.854 71.844,275.982 71.833,279.928 71.833 L 284.000 71.833 284.000 70.333 C 284.000 69.508,283.962 68.833,283.917 68.833 C 283.871 68.833,283.833 69.469,283.833 70.247 M273.039 69.667 C 273.039 69.987,273.073 70.119,273.115 69.958 C 273.157 69.798,273.157 69.535,273.115 69.375 C 273.073 69.215,273.039 69.346,273.039 69.667 M310.392 71.000 C 310.392 71.779,310.420 72.098,310.455 71.708 C 310.490 71.319,310.490 70.681,310.455 70.292 C 310.420 69.902,310.392 70.221,310.392 71.000 M21.208 69.957 C 21.827 69.989,22.840 69.989,23.458 69.957 C 24.077 69.925,23.571 69.899,22.333 69.899 C 21.096 69.899,20.590 69.925,21.208 69.957 M111.875 69.957 C 112.494 69.989,113.506 69.989,114.125 69.957 C 114.744 69.925,114.237 69.899,113.000 69.899 C 111.763 69.899,111.256 69.925,111.875 69.957 M305.083 70.245 C 305.816 70.462,306.442 70.613,306.474 70.581 C 306.558 70.498,304.350 69.832,304.024 69.842 C 303.873 69.847,304.350 70.029,305.083 70.245 M299.392 70.126 C 299.457 70.232,299.746 70.486,300.035 70.692 C 300.324 70.897,300.507 70.979,300.442 70.874 C 300.377 70.768,300.087 70.514,299.798 70.308 C 299.509 70.103,299.326 70.021,299.392 70.126 M374.015 70.250 C 374.010 70.342,374.191 70.979,374.417 71.667 C 374.643 72.354,374.784 72.661,374.729 72.349 C 374.618 71.719,374.030 69.988,374.015 70.250 M368.289 71.289 C 368.143 71.815,368.051 72.273,368.085 72.307 C 368.119 72.341,368.271 71.943,368.422 71.422 C 368.574 70.901,368.665 70.443,368.626 70.404 C 368.587 70.365,368.435 70.763,368.289 71.289 M377.934 71.190 C 377.655 72.175,377.450 73.178,377.582 72.917 C 377.743 72.597,378.310 70.421,378.248 70.359 C 378.214 70.325,378.073 70.699,377.934 71.190 M307.314 71.172 C 307.697 71.449,308.158 71.918,308.338 72.213 C 308.518 72.509,308.666 72.642,308.666 72.511 C 308.667 72.231,307.091 70.667,306.809 70.667 C 306.703 70.667,306.930 70.894,307.314 71.172 M364.575 70.900 C 364.631 71.075,364.796 71.696,364.943 72.281 C 365.090 72.867,365.242 73.313,365.281 73.274 C 365.378 73.178,364.843 71.144,364.639 70.833 C 364.509 70.635,364.496 70.649,364.575 70.900 M372.190 71.167 C 372.190 71.304,372.255 71.567,372.333 71.750 C 372.424 71.960,372.477 71.991,372.477 71.833 C 372.477 71.696,372.412 71.433,372.333 71.250 C 372.243 71.040,372.190 71.009,372.190 71.167 M47.730 71.375 C 47.157 72.348,47.119 72.431,47.411 72.083 C 47.750 71.680,48.042 71.167,47.932 71.167 C 47.889 71.167,47.798 71.260,47.730 71.375 M301.234 71.343 C 301.603 71.578,303.336 72.053,303.440 71.949 C 303.480 71.909,303.078 71.764,302.547 71.626 C 302.017 71.487,301.433 71.322,301.250 71.258 C 300.930 71.146,300.929 71.149,301.234 71.343 M369.929 72.679 C 369.785 73.162,369.700 73.589,369.739 73.628 C 369.779 73.667,369.928 73.304,370.071 72.821 C 370.215 72.338,370.300 71.911,370.261 71.872 C 370.221 71.833,370.072 72.196,369.929 72.679 M157.072 76.083 C 157.072 78.283,157.096 79.160,157.125 78.032 C 157.153 76.904,157.153 75.104,157.124 74.032 C 157.095 72.960,157.072 73.883,157.072 76.083 M367.387 72.570 C 367.403 72.838,367.529 73.094,367.667 73.139 C 367.863 73.203,367.876 73.170,367.726 72.985 C 367.622 72.856,367.496 72.600,367.446 72.417 C 367.390 72.207,367.368 72.264,367.387 72.570 M43.072 76.167 C 43.072 78.321,43.095 79.202,43.124 78.125 C 43.153 77.048,43.153 75.285,43.124 74.208 C 43.095 73.131,43.072 74.012,43.072 76.167 M166.072 76.250 C 166.072 78.450,166.096 79.327,166.125 78.199 C 166.153 77.071,166.153 75.271,166.124 74.199 C 166.095 73.127,166.072 74.050,166.072 76.250 M305.083 72.528 C 305.267 72.630,305.533 72.797,305.675 72.898 C 305.817 73.000,305.756 72.915,305.541 72.708 C 305.325 72.502,305.059 72.336,304.949 72.338 C 304.840 72.341,304.900 72.427,305.083 72.528 M359.189 72.633 C 359.177 72.844,359.052 73.238,358.912 73.508 C 358.773 73.779,358.696 74.000,358.741 74.000 C 358.936 74.000,359.348 72.947,359.283 72.614 C 359.214 72.258,359.212 72.258,359.189 72.633 M372.772 73.083 C 372.948 73.876,373.186 74.353,373.065 73.667 C 373.008 73.346,372.894 72.971,372.812 72.833 C 372.714 72.670,372.700 72.757,372.772 73.083 M275.914 73.167 C 275.981 73.396,276.143 73.696,276.275 73.833 C 276.449 74.015,276.437 73.923,276.232 73.500 C 275.870 72.755,275.759 72.639,275.914 73.167 M308.714 73.750 C 308.716 74.208,308.748 74.376,308.786 74.123 C 308.825 73.869,308.824 73.494,308.784 73.289 C 308.744 73.084,308.713 73.292,308.714 73.750 M132.833 73.230 C 132.833 73.409,133.329 74.333,133.425 74.333 C 133.471 74.333,133.385 74.090,133.233 73.792 C 132.924 73.183,132.833 73.056,132.833 73.230 M313.341 73.219 C 313.319 73.619,314.541 75.167,314.879 75.167 C 314.960 75.167,314.792 74.970,314.506 74.730 C 314.221 74.490,313.843 74.021,313.668 73.688 C 313.492 73.356,313.345 73.145,313.341 73.219 M19.908 73.547 C 19.863 73.664,19.848 75.220,19.875 77.005 L 19.924 80.250 19.962 76.879 L 20.000 73.509 22.542 73.458 L 25.083 73.407 22.536 73.370 C 20.594 73.342,19.970 73.384,19.908 73.547 M110.775 73.458 C 110.733 73.527,111.159 73.562,111.724 73.537 C 113.449 73.458,113.654 73.385,112.218 73.358 C 111.467 73.345,110.818 73.390,110.775 73.458 M273.178 73.417 C 273.178 73.508,273.286 73.771,273.417 74.000 C 273.548 74.229,273.655 74.342,273.655 74.250 C 273.655 74.158,273.548 73.896,273.417 73.667 C 273.286 73.438,273.178 73.325,273.178 73.417 M298.337 73.702 C 298.341 74.154,298.887 75.410,299.150 75.573 C 299.251 75.635,299.191 75.438,299.016 75.135 C 298.842 74.832,298.648 74.340,298.586 74.042 L 298.474 73.500 299.725 73.500 C 300.577 73.500,300.998 73.566,301.045 73.708 C 301.086 73.828,301.108 73.811,301.098 73.667 C 301.063 73.184,298.332 73.219,298.337 73.702 M306.039 73.833 C 306.039 74.154,306.073 74.285,306.115 74.125 C 306.157 73.965,306.157 73.702,306.115 73.542 C 306.073 73.381,306.039 73.512,306.039 73.833 M353.500 73.381 C 353.500 73.619,353.898 74.333,354.031 74.333 C 354.110 74.333,354.045 74.127,353.888 73.875 C 353.513 73.277,353.500 73.260,353.500 73.381 M350.833 73.729 C 350.833 73.909,351.495 75.167,351.590 75.167 C 351.636 75.167,351.513 74.848,351.316 74.458 C 350.930 73.692,350.833 73.546,350.833 73.729 M281.597 74.424 C 281.238 74.741,280.992 75.000,281.050 75.000 C 281.108 75.000,281.424 74.764,281.752 74.476 L 282.348 73.952 282.808 74.393 C 283.061 74.635,283.336 74.833,283.419 74.833 C 283.503 74.833,283.311 74.611,282.994 74.340 C 282.286 73.735,282.383 73.730,281.597 74.424 M369.429 74.262 C 369.367 74.506,369.349 74.738,369.389 74.777 C 369.428 74.817,369.510 74.649,369.571 74.405 C 369.633 74.161,369.651 73.929,369.611 73.889 C 369.572 73.850,369.490 74.018,369.429 74.262 M301.313 74.458 C 301.542 74.891,302.293 75.429,302.450 75.273 C 302.508 75.214,302.461 75.167,302.345 75.167 C 302.229 75.167,301.905 74.923,301.624 74.625 C 301.269 74.247,301.175 74.197,301.313 74.458 M358.234 74.523 C 358.060 74.719,357.692 74.978,357.417 75.100 C 357.103 75.238,357.026 75.323,357.211 75.327 C 357.470 75.333,358.903 74.183,358.651 74.171 C 358.596 74.169,358.409 74.327,358.234 74.523 M143.181 74.396 C 143.351 74.550,144.667 75.165,144.667 75.090 C 144.667 74.995,143.409 74.333,143.229 74.333 C 143.164 74.333,143.142 74.362,143.181 74.396 M277.083 74.735 C 277.358 74.972,277.652 75.165,277.736 75.166 C 277.917 75.167,277.915 75.165,277.167 74.682 L 276.583 74.306 277.083 74.735 M311.145 74.583 C 311.235 74.767,311.431 75.067,311.580 75.250 L 311.852 75.583 311.688 75.250 C 311.598 75.067,311.402 74.767,311.253 74.583 L 310.982 74.250 311.145 74.583 M305.449 74.922 C 304.961 75.352,304.977 75.447,305.491 75.171 C 305.658 75.082,305.838 74.895,305.892 74.755 C 306.017 74.428,306.006 74.432,305.449 74.922 M354.167 74.586 C 354.167 74.736,355.240 75.332,355.500 75.326 C 355.637 75.323,355.515 75.218,355.228 75.093 C 354.941 74.968,354.656 74.784,354.594 74.683 C 354.479 74.498,354.167 74.427,354.167 74.586 M134.250 75.333 C 134.608 75.700,134.938 76.000,134.984 76.000 C 135.030 76.000,134.775 75.700,134.417 75.333 C 134.059 74.967,133.728 74.667,133.682 74.667 C 133.637 74.667,133.892 74.967,134.250 75.333 M141.909 75.375 L 141.250 76.083 141.958 75.425 C 142.617 74.812,142.743 74.667,142.617 74.667 C 142.590 74.667,142.271 74.985,141.909 75.375 M360.920 75.125 C 360.763 75.377,360.323 75.874,359.942 76.229 C 359.207 76.916,359.590 76.727,360.390 76.008 C 360.814 75.628,361.447 74.667,361.273 74.667 C 361.236 74.667,361.077 74.873,360.920 75.125 M376.769 75.437 C 376.621 75.871,376.504 76.344,376.509 76.488 C 376.514 76.632,376.661 76.303,376.835 75.757 C 377.212 74.575,377.156 74.302,376.769 75.437 M129.167 74.897 C 129.167 75.076,129.663 76.000,129.759 76.000 C 129.804 76.000,129.718 75.756,129.566 75.458 C 129.257 74.850,129.167 74.723,129.167 74.897 M308.500 74.949 C 308.500 75.043,308.185 75.487,307.799 75.935 C 307.414 76.383,307.309 76.563,307.566 76.333 C 308.173 75.792,308.731 75.008,308.602 74.879 C 308.546 74.823,308.500 74.855,308.500 74.949 M320.139 75.851 C 319.619 76.390,319.324 76.761,319.482 76.676 C 319.783 76.515,321.167 75.073,321.167 74.920 C 321.167 74.788,321.149 74.804,320.139 75.851 M365.692 75.000 C 365.692 75.137,365.793 75.512,365.917 75.833 C 366.040 76.154,366.141 76.304,366.141 76.167 C 366.141 76.029,366.040 75.654,365.917 75.333 C 365.793 75.012,365.692 74.862,365.692 75.000 M274.500 75.735 C 274.911 76.193,275.833 76.921,275.833 76.787 C 275.833 76.750,275.440 76.393,274.958 75.995 C 274.460 75.583,274.263 75.471,274.500 75.735 M352.203 75.919 C 352.543 76.275,352.849 76.533,352.882 76.492 C 352.915 76.450,352.637 76.159,352.263 75.844 L 351.583 75.271 352.203 75.919 M282.740 76.194 L 282.250 76.722 282.875 76.258 C 283.509 75.787,283.609 75.667,283.365 75.667 C 283.290 75.667,283.009 75.904,282.740 76.194 M368.796 76.365 L 368.557 77.083 367.526 77.133 C 366.584 77.178,366.482 77.150,366.341 76.800 C 366.257 76.589,366.184 76.529,366.180 76.667 C 366.162 77.231,366.427 77.351,367.580 77.300 L 368.714 77.250 368.933 76.507 C 369.217 75.542,369.107 75.428,368.796 76.365 M299.333 75.899 C 299.333 75.942,299.577 76.148,299.875 76.357 C 300.259 76.627,300.348 76.651,300.180 76.443 C 299.942 76.146,299.333 75.755,299.333 75.899 M312.000 75.905 C 312.000 75.945,312.244 76.146,312.542 76.352 L 313.083 76.726 312.679 76.280 C 312.319 75.882,312.000 75.706,312.000 75.905 M373.683 76.047 C 373.674 76.119,373.777 76.441,373.911 76.763 L 374.156 77.349 375.273 77.299 C 376.013 77.267,376.404 77.178,376.433 77.037 C 376.456 76.921,376.437 76.902,376.390 76.996 C 376.344 77.090,375.834 77.167,375.259 77.167 L 374.212 77.167 373.955 76.542 C 373.814 76.198,373.692 75.975,373.683 76.047 M137.621 76.954 C 137.917 76.990,138.442 76.991,138.788 76.955 C 139.134 76.919,138.892 76.889,138.250 76.888 C 137.608 76.887,137.325 76.917,137.621 76.954 M314.043 77.163 C 314.505 77.460,316.130 77.667,316.977 77.536 C 317.659 77.431,317.554 77.405,316.083 77.320 C 315.167 77.267,314.267 77.168,314.083 77.099 C 313.786 76.988,313.781 76.995,314.043 77.163 M358.000 77.188 C 357.555 77.367,355.499 77.407,354.720 77.252 L 354.250 77.159 354.667 77.346 C 355.288 77.625,357.479 77.586,358.167 77.283 C 358.808 77.002,358.667 76.921,358.000 77.188 M277.279 77.393 C 277.609 77.578,280.141 77.577,280.616 77.392 C 280.850 77.301,280.272 77.250,279.003 77.250 C 277.820 77.250,277.127 77.307,277.279 77.393 M303.750 77.324 C 302.203 77.410,302.146 77.425,302.955 77.533 C 303.759 77.641,305.594 77.461,305.801 77.255 C 305.849 77.206,305.783 77.181,305.653 77.199 C 305.523 77.217,304.667 77.273,303.750 77.324 M132.667 78.915 C 132.667 79.028,134.020 79.702,134.096 79.626 C 134.131 79.591,133.823 79.400,133.413 79.200 C 133.003 79.001,132.667 78.873,132.667 78.915 M142.500 79.500 C 142.179 79.676,141.977 79.823,142.050 79.826 C 142.227 79.836,143.167 79.347,143.167 79.246 C 143.167 79.137,143.157 79.140,142.500 79.500 M137.625 80.455 C 138.015 80.490,138.652 80.490,139.042 80.455 C 139.431 80.420,139.112 80.392,138.333 80.392 C 137.554 80.392,137.235 80.420,137.625 80.455 " stroke="none" fill="#778191" fill-rule="evenodd"></path><path id="path4" d="M92.414 50.239 C 90.901 52.222,91.439 54.499,93.322 54.086 C 94.389 53.851,94.635 52.617,93.917 51.099 C 93.243 49.674,92.966 49.516,92.414 50.239 M93.654 51.027 C 94.521 52.763,94.092 54.193,92.783 53.932 C 91.621 53.699,91.414 52.604,92.221 50.958 C 92.815 49.747,93.019 49.757,93.654 51.027 M86.242 52.682 C 86.095 52.966,86.012 53.234,86.056 53.278 C 86.100 53.322,86.185 53.203,86.246 53.014 C 86.306 52.824,86.468 52.556,86.606 52.418 C 86.744 52.280,86.779 52.167,86.683 52.167 C 86.587 52.167,86.389 52.399,86.242 52.682 M87.139 52.282 C 87.261 52.330,87.504 52.606,87.680 52.893 C 87.855 53.181,87.999 53.333,87.999 53.231 C 88.000 52.951,87.337 52.165,87.113 52.180 C 86.988 52.188,86.998 52.225,87.139 52.282 M88.096 53.875 C 88.416 54.884,88.810 55.898,88.821 55.741 C 88.838 55.500,88.156 53.500,88.057 53.500 C 88.013 53.500,88.031 53.669,88.096 53.875 M240.662 54.110 C 240.777 54.167,240.833 58.712,240.833 67.917 C 240.833 77.122,240.777 81.667,240.662 81.724 C 240.569 81.770,240.587 81.789,240.704 81.765 C 240.874 81.731,240.917 78.972,240.917 67.917 C 240.917 56.861,240.874 54.103,240.704 54.068 C 240.587 54.044,240.569 54.063,240.662 54.110 M241.913 67.917 C 241.913 75.617,241.933 78.742,241.958 74.863 C 241.983 70.983,241.983 64.683,241.958 60.863 C 241.933 57.042,241.913 60.217,241.913 67.917 M85.269 55.103 C 85.122 55.536,85.030 55.919,85.065 55.954 C 85.100 55.989,85.250 55.664,85.397 55.231 C 85.545 54.798,85.637 54.415,85.602 54.379 C 85.566 54.344,85.417 54.670,85.269 55.103 M83.952 58.869 C 83.801 59.344,83.704 59.760,83.738 59.793 C 83.772 59.827,83.927 59.470,84.083 59.000 C 84.240 58.530,84.336 58.114,84.298 58.076 C 84.260 58.037,84.104 58.394,83.952 58.869 M89.520 58.500 C 89.517 58.637,89.618 58.975,89.744 59.250 C 90.039 59.894,90.043 59.594,89.750 58.833 C 89.626 58.512,89.523 58.362,89.520 58.500 M94.464 59.292 C 94.173 59.626,93.786 60.333,93.894 60.333 C 93.934 60.333,94.127 60.063,94.322 59.732 C 94.588 59.281,94.759 59.152,95.005 59.216 C 95.186 59.264,95.292 59.234,95.240 59.151 C 95.092 58.911,94.740 58.975,94.464 59.292 M96.085 60.250 C 96.753 61.178,96.938 61.350,96.565 60.697 C 96.392 60.393,96.105 60.018,95.928 59.864 C 95.740 59.701,95.806 59.862,96.085 60.250 M346.000 60.103 C 346.979 60.227,348.296 60.240,348.225 60.125 C 348.182 60.056,347.570 60.011,346.865 60.025 C 346.160 60.039,345.771 60.074,346.000 60.103 M265.542 60.291 C 267.260 60.319,270.073 60.319,271.792 60.291 C 273.510 60.264,272.104 60.242,268.667 60.242 C 265.229 60.242,263.823 60.264,265.542 60.291 M332.743 60.375 C 332.699 60.490,332.683 64.371,332.707 69.000 L 332.750 77.417 334.151 77.465 C 334.922 77.492,335.612 77.455,335.685 77.382 C 335.758 77.309,335.145 77.274,334.323 77.304 L 332.827 77.357 332.872 68.762 C 332.897 64.034,332.896 60.167,332.870 60.167 C 332.844 60.167,332.787 60.260,332.743 60.375 M335.802 60.291 C 337.206 60.319,339.456 60.319,340.802 60.291 C 342.148 60.263,341.000 60.240,338.250 60.241 C 335.500 60.241,334.398 60.263,335.802 60.291 M345.414 68.750 L 345.417 77.417 346.734 77.466 C 347.459 77.493,348.112 77.455,348.185 77.382 C 348.258 77.310,347.685 77.274,346.911 77.304 L 345.503 77.358 345.458 68.721 L 345.412 60.083 345.414 68.750 M90.334 60.786 C 90.333 61.054,91.316 62.167,91.554 62.167 C 91.657 62.167,91.568 62.045,91.356 61.897 C 91.145 61.749,90.828 61.393,90.653 61.106 C 90.478 60.818,90.334 60.674,90.334 60.786 M228.887 61.667 C 228.887 62.262,228.917 62.506,228.954 62.208 C 228.991 61.910,228.991 61.423,228.954 61.125 C 228.917 60.827,228.887 61.071,228.887 61.667 M137.542 60.956 C 137.977 60.990,138.690 60.990,139.125 60.956 C 139.560 60.922,139.204 60.893,138.333 60.893 C 137.462 60.893,137.106 60.922,137.542 60.956 M15.874 70.708 L 15.917 80.250 17.917 80.258 L 19.917 80.265 17.958 80.211 L 16.000 80.156 16.000 70.747 L 16.000 61.338 21.208 61.292 L 26.417 61.245 21.124 61.206 L 15.831 61.167 15.874 70.708 M35.837 61.375 C 35.839 61.490,35.998 61.771,36.190 62.000 L 36.540 62.417 36.270 61.964 C 36.121 61.715,36.000 61.472,36.000 61.423 C 36.000 61.221,40.435 61.335,40.643 61.542 C 40.811 61.709,40.831 61.692,40.742 61.458 C 40.600 61.085,35.830 61.004,35.837 61.375 M49.653 61.458 C 49.466 61.706,49.468 61.719,49.666 61.542 C 49.829 61.397,50.582 61.333,52.130 61.333 L 54.361 61.333 54.000 61.917 C 53.802 62.237,53.677 62.500,53.723 62.500 C 53.821 62.500,54.500 61.426,54.500 61.272 C 54.500 60.988,49.874 61.166,49.653 61.458 M66.703 61.292 L 74.322 61.337 74.376 63.127 L 74.429 64.917 74.465 63.042 L 74.500 61.167 66.792 61.207 L 59.083 61.247 66.703 61.292 M106.576 61.375 C 106.533 61.490,106.516 65.783,106.540 70.917 L 106.583 80.250 108.667 80.250 L 110.750 80.250 110.795 76.965 L 110.840 73.680 112.212 73.622 L 113.583 73.564 112.167 73.574 L 110.750 73.583 110.705 76.875 L 110.660 80.167 108.663 80.167 L 106.667 80.167 106.667 70.752 L 106.667 61.338 111.875 61.292 L 117.083 61.245 111.870 61.206 C 107.823 61.175,106.638 61.213,106.576 61.375 M153.583 61.276 C 155.169 61.398,157.167 61.407,157.167 61.292 C 157.167 61.223,156.210 61.180,155.042 61.196 C 153.873 61.212,153.217 61.248,153.583 61.276 M165.908 61.379 C 165.863 61.496,165.848 63.202,165.875 65.171 L 165.924 68.750 165.962 65.047 L 166.000 61.343 168.125 61.291 L 170.250 61.239 168.120 61.203 C 166.520 61.176,165.969 61.220,165.908 61.379 M82.786 62.369 C 82.634 62.844,82.537 63.260,82.571 63.293 C 82.605 63.327,82.760 62.970,82.917 62.500 C 83.073 62.030,83.169 61.614,83.131 61.576 C 83.093 61.537,82.937 61.894,82.786 62.369 M97.174 61.854 C 97.170 61.911,97.355 62.361,97.586 62.854 C 97.817 63.347,97.957 63.563,97.898 63.333 C 97.786 62.898,97.187 61.673,97.174 61.854 M48.897 62.542 C 48.323 63.515,48.286 63.598,48.578 63.250 C 48.916 62.847,49.208 62.333,49.099 62.333 C 49.055 62.333,48.964 62.427,48.897 62.542 M144.828 63.583 C 146.256 65.142,146.273 65.159,145.874 64.583 C 145.683 64.308,145.129 63.708,144.643 63.250 C 143.827 62.481,143.841 62.506,144.828 63.583 M267.077 69.917 C 267.077 73.950,267.098 75.576,267.125 73.530 C 267.151 71.485,267.151 68.185,267.125 66.197 C 267.098 64.209,267.077 65.883,267.077 69.917 M246.693 64.365 C 246.679 65.254,246.723 66.015,246.792 66.058 C 246.860 66.101,246.896 65.599,246.871 64.943 C 246.793 62.912,246.721 62.678,246.693 64.365 M236.038 71.032 C 236.017 75.495,236.056 79.182,236.125 79.224 C 236.239 79.295,236.237 73.320,236.120 65.833 C 236.095 64.229,236.058 66.568,236.038 71.032 M42.479 64.417 C 42.569 64.600,42.764 64.900,42.914 65.083 L 43.185 65.417 43.021 65.083 C 42.931 64.900,42.736 64.600,42.586 64.417 L 42.315 64.083 42.479 64.417 M279.208 64.448 C 279.369 64.490,279.631 64.490,279.792 64.448 C 279.952 64.406,279.821 64.372,279.500 64.372 C 279.179 64.372,279.048 64.406,279.208 64.448 M302.542 64.448 C 302.702 64.490,302.965 64.490,303.125 64.448 C 303.285 64.406,303.154 64.372,302.833 64.372 C 302.512 64.372,302.381 64.406,302.542 64.448 M304.208 64.448 C 304.369 64.490,304.631 64.490,304.792 64.448 C 304.952 64.406,304.821 64.372,304.500 64.372 C 304.179 64.372,304.048 64.406,304.208 64.448 M315.042 64.448 C 315.202 64.490,315.465 64.490,315.625 64.448 C 315.785 64.406,315.654 64.372,315.333 64.372 C 315.012 64.372,314.881 64.406,315.042 64.448 M330.292 64.443 C 330.937 64.581,330.861 67.112,330.208 67.221 C 329.773 67.294,329.775 67.297,330.250 67.274 L 330.750 67.250 330.750 65.833 C 330.750 64.441,330.743 64.416,330.333 64.389 C 329.966 64.365,329.961 64.372,330.292 64.443 M356.875 64.448 C 357.035 64.490,357.298 64.490,357.458 64.448 C 357.619 64.406,357.488 64.372,357.167 64.372 C 356.846 64.372,356.715 64.406,356.875 64.448 M137.792 64.621 C 138.090 64.658,138.577 64.658,138.875 64.621 C 139.173 64.584,138.929 64.553,138.333 64.553 C 137.737 64.553,137.494 64.584,137.792 64.621 M286.243 64.709 C 286.199 64.824,286.182 67.730,286.206 71.167 L 286.250 77.417 287.568 77.466 C 288.292 77.493,288.945 77.455,289.018 77.382 C 289.092 77.310,288.517 77.274,287.742 77.304 L 286.333 77.358 286.333 71.019 L 286.333 64.680 287.708 64.624 L 289.083 64.568 287.703 64.534 C 286.724 64.510,286.300 64.561,286.243 64.709 M290.574 64.759 C 290.255 65.014,290.255 65.016,290.583 64.865 C 290.767 64.781,291.029 64.670,291.167 64.619 C 291.383 64.539,291.381 64.525,291.157 64.513 C 291.014 64.506,290.751 64.617,290.574 64.759 M313.875 64.672 C 313.298 64.904,313.431 65.006,314.042 64.800 C 314.340 64.699,314.615 64.591,314.653 64.559 C 314.788 64.444,314.244 64.523,313.875 64.672 M324.000 64.625 C 324.000 64.694,324.468 64.729,325.041 64.703 C 326.813 64.624,326.983 64.551,325.458 64.525 C 324.656 64.511,324.000 64.556,324.000 64.625 M362.845 64.875 C 362.851 65.081,362.925 65.400,363.008 65.583 C 363.116 65.822,363.131 65.742,363.062 65.299 L 362.966 64.681 364.358 64.624 L 365.750 64.568 364.292 64.534 C 362.877 64.501,362.834 64.511,362.845 64.875 M370.276 64.625 C 370.233 64.694,370.585 64.728,371.057 64.702 C 372.478 64.622,372.651 64.547,371.468 64.523 C 370.855 64.510,370.318 64.556,370.276 64.625 M377.109 64.625 C 377.066 64.694,377.664 64.726,378.438 64.696 L 379.846 64.642 379.752 65.113 C 379.665 65.552,379.670 65.558,379.830 65.193 C 379.924 64.978,379.959 64.734,379.907 64.651 C 379.795 64.470,377.220 64.446,377.109 64.625 M59.275 64.875 C 59.318 64.944,60.548 65.000,62.008 65.000 L 64.663 65.000 64.707 72.625 L 64.750 80.250 66.792 80.258 L 68.834 80.266 66.835 80.211 L 64.837 80.156 64.793 72.537 L 64.750 64.917 61.974 64.833 C 60.447 64.787,59.233 64.806,59.275 64.875 M21.549 64.957 C 22.264 64.989,23.389 64.988,24.049 64.957 C 24.710 64.925,24.125 64.900,22.750 64.900 C 21.375 64.900,20.835 64.926,21.549 64.957 M70.125 64.957 C 70.881 64.988,72.119 64.988,72.875 64.957 C 73.631 64.926,73.012 64.901,71.500 64.901 C 69.987 64.901,69.369 64.926,70.125 64.957 M111.875 64.957 C 112.585 64.988,113.748 64.988,114.458 64.957 C 115.169 64.926,114.587 64.900,113.167 64.900 C 111.746 64.900,111.165 64.926,111.875 64.957 M81.619 65.869 C 81.467 66.344,81.371 66.760,81.405 66.793 C 81.438 66.827,81.594 66.470,81.750 66.000 C 81.906 65.530,82.003 65.114,81.964 65.076 C 81.926 65.037,81.771 65.394,81.619 65.869 M129.498 65.542 C 129.317 65.840,129.168 66.152,129.167 66.236 C 129.167 66.426,129.190 66.395,129.631 65.625 C 130.069 64.860,129.957 64.789,129.498 65.542 M98.523 65.250 C 98.518 65.342,98.662 65.979,98.842 66.667 C 99.023 67.354,99.133 67.617,99.088 67.250 C 99.006 66.582,98.541 64.936,98.523 65.250 M282.333 65.750 C 282.644 66.071,282.936 66.333,282.982 66.333 C 283.028 66.333,282.811 66.071,282.500 65.750 C 282.189 65.429,281.897 65.167,281.851 65.167 C 281.805 65.167,282.022 65.429,282.333 65.750 M116.999 65.792 C 117.218 66.090,117.422 66.333,117.454 66.333 C 117.580 66.333,117.167 65.708,116.894 65.486 C 116.714 65.340,116.754 65.456,116.999 65.792 M141.750 66.000 C 142.108 66.367,142.438 66.667,142.484 66.667 C 142.530 66.667,142.275 66.367,141.917 66.000 C 141.559 65.633,141.228 65.333,141.182 65.333 C 141.137 65.333,141.392 65.633,141.750 66.000 M289.415 65.503 C 289.357 65.596,289.240 65.629,289.155 65.576 C 289.070 65.523,289.000 65.609,289.000 65.766 C 289.000 66.030,289.025 66.029,289.333 65.750 C 289.517 65.584,289.667 65.422,289.667 65.391 C 289.667 65.272,289.516 65.339,289.415 65.503 M320.250 66.000 C 320.608 66.367,320.938 66.667,320.984 66.667 C 321.030 66.667,320.775 66.367,320.417 66.000 C 320.059 65.633,319.728 65.333,319.682 65.333 C 319.637 65.333,319.892 65.633,320.250 66.000 M352.075 66.042 L 351.417 66.750 352.125 66.091 C 352.784 65.478,352.910 65.333,352.784 65.333 C 352.757 65.333,352.438 65.652,352.075 66.042 M134.158 66.292 L 133.583 66.917 134.208 66.342 C 134.790 65.808,134.910 65.667,134.783 65.667 C 134.755 65.667,134.474 65.948,134.158 66.292 M145.667 65.917 C 145.438 66.048,145.325 66.155,145.417 66.155 C 145.508 66.155,145.771 66.048,146.000 65.917 C 146.229 65.786,146.342 65.678,146.250 65.678 C 146.158 65.678,145.896 65.786,145.667 65.917 M369.686 66.183 C 369.584 66.476,369.505 66.799,369.512 66.900 C 369.518 67.001,369.631 66.790,369.762 66.431 C 369.894 66.073,369.972 65.750,369.937 65.714 C 369.901 65.679,369.788 65.890,369.686 66.183 M121.872 66.500 C 121.872 66.821,121.906 66.952,121.948 66.792 C 121.990 66.631,121.990 66.369,121.948 66.208 C 121.906 66.048,121.872 66.179,121.872 66.500 M26.782 66.936 C 26.892 68.065,26.972 68.222,26.984 67.333 C 26.990 66.921,26.929 66.479,26.849 66.353 C 26.759 66.210,26.733 66.434,26.782 66.936 M31.221 67.250 C 31.222 67.892,31.252 68.134,31.288 67.788 C 31.324 67.442,31.324 66.917,31.287 66.621 C 31.250 66.325,31.221 66.608,31.221 67.250 M46.397 66.542 C 45.823 67.515,45.786 67.598,46.078 67.250 C 46.416 66.847,46.708 66.333,46.599 66.333 C 46.555 66.333,46.464 66.427,46.397 66.542 M298.995 66.676 C 298.894 66.864,298.836 67.093,298.867 67.183 C 298.897 67.274,299.008 67.120,299.113 66.841 C 299.332 66.260,299.266 66.169,298.995 66.676 M296.435 66.917 C 296.572 67.529,296.668 67.663,296.664 67.236 C 296.663 67.060,296.585 66.804,296.492 66.667 C 296.369 66.484,296.353 66.552,296.435 66.917 M302.686 66.651 C 302.544 66.741,302.768 66.767,303.269 66.718 C 304.398 66.608,304.555 66.528,303.667 66.516 C 303.254 66.510,302.813 66.571,302.686 66.651 M87.083 66.973 C 86.169 67.530,85.207 68.808,84.929 69.833 C 84.867 70.063,85.045 69.790,85.325 69.228 C 85.788 68.298,86.588 67.407,87.430 66.885 C 87.606 66.776,87.712 66.682,87.667 66.677 C 87.621 66.672,87.358 66.805,87.083 66.973 M277.417 66.974 C 277.142 67.142,276.804 67.422,276.667 67.596 C 276.529 67.771,276.666 67.708,276.971 67.457 C 277.652 66.896,278.129 66.767,279.116 66.878 C 279.585 66.931,279.790 66.908,279.647 66.818 C 279.242 66.561,277.943 66.652,277.417 66.974 M290.708 66.839 C 290.502 66.921,290.333 67.034,290.333 67.088 C 290.333 67.142,290.416 67.135,290.517 67.073 C 290.618 67.011,291.087 66.903,291.559 66.834 C 292.365 66.716,292.377 66.708,291.750 66.698 C 291.383 66.692,290.915 66.756,290.708 66.839 M304.941 66.988 C 305.262 67.183,305.543 67.543,305.666 67.915 C 305.776 68.249,305.901 68.488,305.943 68.446 C 306.235 68.154,305.101 66.665,304.588 66.667 C 304.494 66.668,304.653 66.812,304.941 66.988 M314.958 66.929 C 314.706 67.065,314.500 67.215,314.500 67.261 C 314.500 67.307,314.669 67.251,314.875 67.136 C 315.081 67.021,315.662 66.879,316.167 66.821 L 317.083 66.716 316.250 66.698 C 315.792 66.688,315.210 66.792,314.958 66.929 M356.083 66.781 C 357.185 66.877,357.466 66.981,358.122 67.538 C 358.691 68.021,358.711 68.027,358.333 67.603 C 357.728 66.923,357.122 66.663,356.217 66.695 C 355.449 66.722,355.444 66.725,356.083 66.781 M133.077 67.875 C 132.853 68.356,132.674 68.862,132.680 69.000 C 132.686 69.137,132.789 68.980,132.911 68.651 C 133.032 68.322,133.254 67.815,133.403 67.526 C 133.553 67.237,133.632 67.000,133.580 67.000 C 133.528 67.000,133.301 67.394,133.077 67.875 M280.352 67.409 C 280.500 67.596,280.704 67.900,280.806 68.083 C 280.907 68.267,280.992 68.324,280.995 68.211 C 280.998 68.098,280.794 67.794,280.542 67.536 C 280.290 67.278,280.204 67.221,280.352 67.409 M298.714 68.250 C 298.716 68.708,298.748 68.876,298.786 68.623 C 298.825 68.369,298.824 67.994,298.784 67.789 C 298.744 67.584,298.713 67.792,298.714 68.250 M308.705 68.000 C 308.705 68.321,308.740 68.452,308.782 68.292 C 308.823 68.131,308.823 67.869,308.782 67.708 C 308.740 67.548,308.705 67.679,308.705 68.000 M121.872 68.167 C 121.872 68.487,121.906 68.619,121.948 68.458 C 121.990 68.298,121.990 68.035,121.948 67.875 C 121.906 67.715,121.872 67.846,121.872 68.167 M249.967 67.860 C 250.129 68.067,250.171 68.794,250.133 70.736 C 250.106 72.165,250.140 73.334,250.208 73.334 C 250.506 73.333,250.347 68.052,250.042 67.812 C 249.781 67.607,249.773 67.612,249.967 67.860 M93.940 68.417 C 94.195 68.783,94.425 69.115,94.452 69.153 C 94.478 69.191,94.500 69.151,94.500 69.063 C 94.500 68.976,94.270 68.644,93.988 68.327 L 93.476 67.750 93.940 68.417 M80.693 68.645 C 80.587 69.000,80.463 69.656,80.419 70.103 C 80.340 70.892,80.345 70.886,80.561 69.917 C 80.683 69.367,80.840 68.710,80.910 68.458 C 81.105 67.750,80.911 67.917,80.693 68.645 M26.667 68.322 C 26.667 68.438,26.423 68.762,26.125 69.042 C 25.747 69.398,25.697 69.492,25.958 69.353 C 26.391 69.125,26.929 68.373,26.773 68.217 C 26.714 68.159,26.667 68.206,26.667 68.322 M117.162 68.676 C 117.061 68.864,116.740 69.164,116.448 69.342 C 116.156 69.520,116.000 69.666,116.103 69.666 C 116.364 69.667,117.136 69.036,117.340 68.654 C 117.435 68.478,117.474 68.333,117.428 68.333 C 117.383 68.333,117.263 68.487,117.162 68.676 M363.857 68.667 C 363.857 68.804,363.921 69.067,364.000 69.250 C 364.090 69.460,364.143 69.491,364.143 69.333 C 364.143 69.196,364.079 68.933,364.000 68.750 C 363.910 68.540,363.857 68.509,363.857 68.667 M293.912 73.167 L 293.917 77.417 295.234 77.466 C 295.959 77.493,296.612 77.455,296.685 77.382 C 296.758 77.310,296.185 77.274,295.412 77.304 L 294.006 77.358 293.957 73.137 L 293.908 68.917 293.912 73.167 M128.227 70.667 C 128.227 71.537,128.255 71.894,128.289 71.458 C 128.324 71.023,128.324 70.310,128.289 69.875 C 128.255 69.440,128.227 69.796,128.227 70.667 M275.853 69.462 L 275.833 69.842 278.528 69.796 C 280.549 69.761,281.233 69.697,281.265 69.537 C 281.289 69.421,281.270 69.402,281.224 69.496 C 281.058 69.831,276.037 69.716,275.948 69.375 C 275.891 69.158,275.867 69.180,275.853 69.462 M284.033 70.455 L 284.000 71.828 279.875 71.875 L 275.750 71.923 279.880 71.961 C 284.596 72.005,284.211 72.155,284.124 70.318 L 284.066 69.083 284.033 70.455 M350.394 70.917 C 350.395 71.833,350.423 72.187,350.456 71.703 C 350.490 71.218,350.490 70.468,350.456 70.036 C 350.421 69.604,350.394 70.000,350.394 70.917 M272.894 71.083 C 272.895 72.000,272.923 72.354,272.956 71.869 C 272.990 71.385,272.990 70.635,272.956 70.203 C 272.921 69.770,272.894 70.167,272.894 71.083 M99.392 71.000 C 99.392 71.779,99.420 72.098,99.455 71.708 C 99.490 71.319,99.490 70.681,99.455 70.292 C 99.420 69.902,99.392 70.221,99.392 71.000 M359.205 70.167 C 359.205 70.487,359.240 70.619,359.282 70.458 C 359.323 70.298,359.323 70.035,359.282 69.875 C 359.240 69.715,359.205 69.846,359.205 70.167 M48.410 70.542 C 48.154 70.931,48.050 71.162,48.180 71.054 C 48.430 70.848,49.068 69.833,48.948 69.833 C 48.909 69.833,48.667 70.152,48.410 70.542 M310.221 70.917 C 310.222 71.558,310.252 71.800,310.288 71.455 C 310.324 71.109,310.324 70.584,310.287 70.288 C 310.250 69.992,310.221 70.275,310.221 70.917 M313.224 71.083 C 313.224 71.817,313.254 72.096,313.289 71.704 C 313.324 71.312,313.324 70.712,313.288 70.371 C 313.252 70.029,313.223 70.350,313.224 71.083 M319.221 70.917 C 319.222 71.558,319.252 71.800,319.288 71.455 C 319.324 71.109,319.324 70.584,319.287 70.288 C 319.250 69.992,319.221 70.275,319.221 70.917 M337.551 70.124 C 338.541 70.154,340.116 70.154,341.051 70.124 C 341.985 70.095,341.175 70.070,339.250 70.071 C 337.325 70.071,336.560 70.095,337.551 70.124 M362.218 70.917 C 362.219 71.467,362.250 71.672,362.287 71.372 C 362.325 71.072,362.324 70.622,362.286 70.372 C 362.248 70.122,362.217 70.367,362.218 70.917 M370.700 70.617 C 370.453 71.420,370.573 71.540,370.833 70.750 C 370.943 70.417,371.001 70.112,370.961 70.072 C 370.922 70.033,370.804 70.278,370.700 70.617 M375.583 70.667 C 375.520 70.955,375.503 71.225,375.545 71.268 C 375.588 71.310,375.671 71.105,375.729 70.813 C 375.868 70.118,375.733 69.983,375.583 70.667 M353.214 71.083 C 353.216 71.542,353.248 71.709,353.286 71.456 C 353.325 71.203,353.324 70.828,353.284 70.623 C 353.244 70.418,353.213 70.625,353.214 71.083 M84.721 71.583 C 84.722 72.225,84.752 72.467,84.788 72.121 C 84.824 71.775,84.824 71.250,84.787 70.955 C 84.750 70.659,84.721 70.942,84.721 71.583 M300.092 70.847 C 300.206 71.032,301.173 71.549,301.254 71.468 C 301.285 71.437,301.015 71.250,300.653 71.052 C 300.292 70.854,300.039 70.762,300.092 70.847 M120.000 71.701 C 119.496 72.171,119.233 72.474,119.417 72.374 C 119.737 72.200,121.147 70.827,120.992 70.840 C 120.951 70.843,120.504 71.231,120.000 71.701 M307.500 71.052 C 307.500 71.081,307.744 71.325,308.042 71.594 L 308.583 72.083 308.094 71.542 C 307.638 71.037,307.500 70.923,307.500 71.052 M359.209 71.750 C 359.211 72.117,359.245 72.247,359.285 72.040 C 359.324 71.832,359.323 71.532,359.281 71.373 C 359.239 71.214,359.207 71.383,359.209 71.750 M246.705 75.208 L 246.743 79.083 246.792 75.284 C 246.827 72.501,246.890 71.516,247.029 71.601 C 247.145 71.673,247.172 71.644,247.099 71.526 C 246.739 70.944,246.669 71.599,246.705 75.208 M47.278 72.278 C 47.217 72.339,47.167 74.143,47.167 76.287 L 47.167 80.186 45.083 80.135 C 43.937 80.106,43.000 80.142,43.000 80.213 C 43.000 80.285,43.956 80.322,45.125 80.297 L 47.250 80.250 47.333 76.208 C 47.379 73.985,47.410 72.166,47.403 72.166 C 47.395 72.167,47.339 72.217,47.278 72.278 M161.455 72.292 L 165.827 72.339 165.872 76.294 L 165.917 80.250 168.083 80.258 L 170.250 80.266 168.125 80.211 L 166.000 80.157 166.000 76.162 L 166.000 72.167 161.542 72.205 L 157.083 72.244 161.455 72.292 M275.836 72.431 C 275.837 72.606,275.915 72.862,276.008 73.000 C 276.131 73.183,276.147 73.115,276.065 72.750 C 275.928 72.137,275.832 72.004,275.836 72.431 M80.372 72.833 C 80.372 73.154,80.406 73.285,80.448 73.125 C 80.490 72.965,80.490 72.702,80.448 72.542 C 80.406 72.381,80.372 72.512,80.372 72.833 M365.025 73.000 C 365.025 73.137,365.126 73.512,365.250 73.833 C 365.374 74.154,365.475 74.304,365.475 74.167 C 365.475 74.029,365.374 73.654,365.250 73.333 C 365.126 73.012,365.025 72.862,365.025 73.000 M298.833 73.270 C 299.812 73.394,301.130 73.407,301.058 73.292 C 301.015 73.223,300.404 73.178,299.698 73.192 C 298.993 73.205,298.604 73.240,298.833 73.270 M308.875 73.750 C 308.877 74.117,308.911 74.247,308.951 74.040 C 308.991 73.832,308.990 73.532,308.948 73.373 C 308.906 73.214,308.874 73.383,308.875 73.750 M25.294 73.451 C 25.501 73.491,25.801 73.490,25.960 73.448 C 26.120 73.406,25.950 73.374,25.583 73.375 C 25.217 73.377,25.086 73.411,25.294 73.451 M80.511 73.683 C 80.498 73.990,80.843 75.045,80.929 74.960 C 80.960 74.929,80.881 74.569,80.754 74.160 C 80.627 73.751,80.517 73.537,80.511 73.683 M94.322 74.036 C 94.199 74.337,93.683 74.994,93.174 75.496 C 92.640 76.023,92.473 76.251,92.779 76.036 C 93.627 75.437,94.849 73.794,94.618 73.563 C 94.578 73.522,94.444 73.735,94.322 74.036 M98.963 74.083 C 98.904 74.358,98.813 74.733,98.759 74.917 C 98.706 75.100,98.779 74.997,98.923 74.689 C 99.066 74.380,99.158 74.005,99.126 73.855 C 99.093 73.698,99.024 73.794,98.963 74.083 M281.740 74.208 L 281.250 74.750 281.791 74.262 L 282.331 73.773 282.791 74.178 L 283.250 74.583 282.846 74.125 C 282.341 73.552,282.332 73.552,281.740 74.208 M313.816 73.940 C 314.255 74.829,315.545 75.472,316.520 75.287 C 316.790 75.236,316.715 75.205,316.286 75.189 C 315.388 75.157,314.627 74.794,314.098 74.145 C 313.846 73.836,313.719 73.744,313.816 73.940 M321.367 74.420 C 321.168 74.831,321.039 75.167,321.082 75.167 C 321.195 75.167,321.868 73.813,321.793 73.738 C 321.758 73.703,321.566 74.010,321.367 74.420 M361.449 74.419 C 361.297 74.738,361.206 75.000,361.248 75.000 C 361.362 75.000,361.868 73.980,361.792 73.903 C 361.756 73.867,361.602 74.099,361.449 74.419 M273.334 74.097 C 273.335 74.284,273.964 75.333,274.075 75.333 C 274.119 75.333,273.994 75.052,273.798 74.708 C 273.357 73.938,273.333 73.907,273.334 74.097 M358.312 74.277 C 358.186 74.429,357.858 74.692,357.583 74.860 C 357.308 75.028,357.178 75.166,357.294 75.166 C 357.504 75.167,358.845 74.013,358.645 74.005 C 358.588 74.002,358.438 74.125,358.312 74.277 M305.514 74.730 L 305.112 75.250 305.589 74.797 C 305.851 74.547,306.032 74.314,305.991 74.277 C 305.950 74.240,305.736 74.444,305.514 74.730 M351.000 74.454 C 351.000 74.551,351.154 74.807,351.343 75.023 L 351.686 75.417 351.394 74.917 C 351.008 74.259,351.000 74.249,351.000 74.454 M301.592 74.681 C 301.706 74.865,302.673 75.382,302.754 75.302 C 302.785 75.271,302.515 75.083,302.153 74.885 C 301.792 74.688,301.539 74.595,301.592 74.681 M277.574 74.907 C 277.751 75.050,278.014 75.161,278.157 75.154 C 278.381 75.142,278.383 75.128,278.167 75.048 C 278.029 74.997,277.767 74.886,277.583 74.802 C 277.255 74.651,277.255 74.652,277.574 74.907 M311.318 75.139 C 311.408 75.307,311.613 75.550,311.773 75.680 C 311.953 75.827,311.913 75.710,311.667 75.375 C 311.229 74.777,311.065 74.666,311.318 75.139 M278.877 75.286 C 279.131 75.325,279.506 75.324,279.711 75.284 C 279.916 75.244,279.708 75.213,279.250 75.214 C 278.792 75.216,278.624 75.248,278.877 75.286 M355.958 75.284 C 356.165 75.324,356.502 75.324,356.708 75.284 C 356.915 75.245,356.746 75.212,356.333 75.212 C 355.921 75.212,355.752 75.245,355.958 75.284 M114.750 75.833 C 114.892 76.108,115.046 76.333,115.092 76.333 C 115.138 76.333,115.059 76.108,114.917 75.833 C 114.774 75.558,114.621 75.333,114.575 75.333 C 114.529 75.333,114.608 75.558,114.750 75.833 M303.460 75.451 C 303.668 75.491,303.968 75.490,304.127 75.448 C 304.286 75.406,304.117 75.374,303.750 75.375 C 303.383 75.377,303.253 75.411,303.460 75.451 M320.242 76.042 L 319.583 76.750 320.292 76.091 C 320.681 75.729,321.000 75.410,321.000 75.383 C 321.000 75.257,320.855 75.383,320.242 76.042 M274.167 75.552 C 274.167 75.581,274.410 75.825,274.708 76.094 L 275.250 76.583 274.760 76.042 C 274.304 75.537,274.167 75.423,274.167 75.552 M307.740 76.208 L 307.250 76.750 307.792 76.260 C 308.090 75.991,308.333 75.748,308.333 75.719 C 308.333 75.590,308.196 75.703,307.740 76.208 M81.610 76.289 C 81.771 76.585,82.390 77.297,82.988 77.872 L 84.074 78.917 82.992 77.750 C 82.396 77.108,81.776 76.396,81.614 76.167 C 81.330 75.766,81.330 75.771,81.610 76.289 M86.925 76.014 C 87.040 76.199,88.007 76.716,88.087 76.635 C 88.118 76.604,87.848 76.417,87.486 76.219 C 87.125 76.021,86.873 75.929,86.925 76.014 M97.666 76.875 C 97.421 77.210,97.381 77.327,97.561 77.180 C 97.834 76.958,98.247 76.333,98.121 76.333 C 98.089 76.333,97.884 76.577,97.666 76.875 M353.143 76.823 C 353.360 77.012,353.616 77.167,353.713 77.167 C 353.918 77.167,353.908 77.158,353.250 76.773 L 352.750 76.480 353.143 76.823 M318.750 77.009 C 318.383 77.183,318.181 77.327,318.300 77.329 C 318.543 77.334,319.500 76.869,319.500 76.746 C 319.500 76.648,319.549 76.631,318.750 77.009 M376.461 76.963 C 376.331 77.463,374.297 77.529,374.013 77.042 C 373.920 76.881,373.841 76.829,373.838 76.925 C 373.827 77.317,374.281 77.500,375.263 77.500 C 376.306 77.500,376.780 77.257,376.628 76.802 C 376.590 76.686,376.515 76.759,376.461 76.963 M89.375 76.953 C 89.627 76.991,90.040 76.991,90.292 76.953 C 90.544 76.915,90.337 76.883,89.833 76.883 C 89.329 76.883,89.123 76.915,89.375 76.953 M115.500 77.064 C 115.500 77.243,115.996 78.167,116.092 78.167 C 116.138 78.167,116.051 77.923,115.900 77.625 C 115.590 77.017,115.500 76.890,115.500 77.064 M130.917 77.667 C 131.275 78.033,131.605 78.333,131.651 78.333 C 131.697 78.333,131.441 78.033,131.083 77.667 C 130.725 77.300,130.395 77.000,130.349 77.000 C 130.303 77.000,130.559 77.300,130.917 77.667 M276.333 77.139 C 276.471 77.224,276.771 77.343,277.000 77.404 C 277.290 77.482,277.340 77.469,277.167 77.361 C 277.029 77.276,276.729 77.157,276.500 77.096 C 276.210 77.018,276.160 77.031,276.333 77.139 M144.744 78.042 L 143.917 78.917 144.792 78.090 C 145.605 77.321,145.743 77.167,145.619 77.167 C 145.592 77.167,145.199 77.560,144.744 78.042 M268.583 77.333 L 267.083 77.437 268.532 77.469 C 269.354 77.486,270.025 77.428,270.083 77.333 C 270.140 77.242,270.163 77.181,270.135 77.198 C 270.107 77.215,269.408 77.276,268.583 77.333 M324.109 77.375 C 324.152 77.444,324.777 77.500,325.500 77.500 C 326.223 77.500,326.848 77.444,326.891 77.375 C 326.933 77.306,326.307 77.250,325.500 77.250 C 324.693 77.250,324.067 77.306,324.109 77.375 M367.583 77.333 L 366.417 77.441 367.532 77.471 C 368.145 77.487,368.693 77.425,368.750 77.333 C 368.807 77.242,368.830 77.180,368.802 77.196 C 368.773 77.212,368.225 77.274,367.583 77.333 M96.417 78.269 C 95.695 78.929,95.675 78.963,96.266 78.522 C 96.887 78.058,97.466 77.495,97.312 77.503 C 97.278 77.505,96.875 77.850,96.417 78.269 M84.667 79.241 C 84.667 79.287,84.892 79.441,85.167 79.583 C 85.442 79.726,85.667 79.804,85.667 79.759 C 85.667 79.713,85.442 79.559,85.167 79.417 C 84.892 79.274,84.667 79.196,84.667 79.241 M121.830 79.792 L 122.012 80.167 119.706 80.167 C 118.097 80.167,117.329 80.104,117.166 79.958 C 116.968 79.781,116.966 79.794,117.153 80.042 C 117.345 80.295,117.679 80.333,119.677 80.333 C 122.068 80.333,122.328 80.263,121.902 79.733 C 121.662 79.433,121.658 79.436,121.830 79.792 M155.000 80.167 L 152.917 80.266 155.042 80.300 C 156.370 80.321,157.167 80.271,157.167 80.167 C 157.167 80.075,157.148 80.015,157.125 80.034 C 157.102 80.052,156.146 80.112,155.000 80.167 M87.250 80.421 C 87.617 80.542,88.104 80.640,88.333 80.640 C 88.563 80.639,88.337 80.535,87.833 80.410 C 86.687 80.124,86.366 80.130,87.250 80.421 M91.583 80.500 C 91.134 80.614,91.126 80.628,91.500 80.630 C 91.729 80.632,92.104 80.573,92.333 80.500 C 92.894 80.321,92.288 80.321,91.583 80.500 M137.788 80.620 C 138.084 80.657,138.609 80.658,138.955 80.622 C 139.300 80.586,139.058 80.555,138.417 80.555 C 137.775 80.554,137.492 80.583,137.788 80.620 M89.288 80.787 C 89.584 80.824,90.109 80.824,90.455 80.788 C 90.800 80.752,90.558 80.722,89.917 80.721 C 89.275 80.721,88.992 80.750,89.288 80.787 " stroke="none" fill="#b4aaa8" fill-rule="evenodd"></path></g></svg>