<?xml version="1.0" standalone="no"?>
<!DOCTYPE svg PUBLIC "-//W3C//DTD SVG 20010904//EN"
 "http://www.w3.org/TR/2001/REC-SVG-20010904/DTD/svg10.dtd">
<svg version="1.0" xmlns="http://www.w3.org/2000/svg"
 width="2050.000000pt" height="780.000000pt" viewBox="0 0 2050.000000 780.000000"
 preserveAspectRatio="xMidYMid meet">

<g transform="translate(0.000000,780.000000) scale(0.100000,-0.100000)"
fill="#000000" stroke="none">
<path d="M4736 5215 c-23 -36 -40 -107 -32 -138 14 -56 108 -56 122 0 8 29 -8
85 -36 131 -24 38 -33 40 -54 7z"/>
<path d="M4429 5099 c-20 -38 -241 -685 -285 -834 -25 -85 -23 -195 4 -275 28
-84 66 -140 132 -196 160 -137 362 -162 555 -68 113 54 180 129 223 247 23 62
26 88 27 192 0 193 -52 373 -153 528 -34 52 -49 67 -68 67 -13 0 -24 -4 -24
-10 0 -18 -70 -119 -89 -130 -65 -34 -115 15 -159 159 -17 53 -45 142 -62 197
-43 140 -72 175 -101 123z m286 -713 c103 -49 157 -136 157 -256 2 -205 -204
-342 -381 -253 -97 49 -151 141 -151 256 0 82 17 130 64 184 80 91 206 119
311 69z"/>
<path d="M13422 4653 l3 -58 133 -3 132 -3 0 -374 0 -375 75 0 75 0 0 375 0
374 138 3 137 3 3 58 3 57 -351 0 -351 0 3 -57z"/>
<path d="M17060 4275 l0 -435 75 0 75 0 0 185 0 185 175 0 175 0 0 60 0 60
-175 0 -175 0 0 130 0 130 200 0 200 0 0 60 0 60 -275 0 -275 0 0 -435z"/>
<path d="M17710 4275 l0 -435 70 0 70 0 0 435 0 435 -70 0 -70 0 0 -435z"/>
<path d="M7025 4669 c-126 -12 -227 -60 -313 -147 -91 -93 -132 -200 -132
-348 0 -113 24 -198 80 -282 51 -75 108 -122 207 -170 l78 -37 140 0 141 0 76
38 c54 26 91 54 127 93 84 92 85 87 -13 136 l-85 42 -46 -48 c-62 -64 -112
-86 -200 -86 -88 0 -153 28 -211 92 -102 110 -112 298 -24 420 107 148 315
163 438 31 l43 -47 85 42 c96 48 95 44 23 126 -102 116 -233 161 -414 145z"/>
<path d="M820 4176 l0 -486 100 0 100 0 2 173 3 172 175 5 c166 5 178 6 232
33 64 32 111 80 142 146 26 57 28 196 3 251 -33 74 -74 117 -144 152 l-67 33
-273 3 -273 3 0 -485z m484 290 c71 -29 99 -99 68 -169 -29 -66 -61 -77 -221
-77 l-131 0 0 130 0 130 125 0 c84 0 137 -5 159 -14z"/>
<path d="M1846 4648 c11 -18 96 -149 241 -372 l123 -189 0 -198 0 -199 105 0
105 0 0 203 0 202 131 200 c73 110 155 236 184 280 l52 80 -110 3 c-80 2 -114
-1 -123 -10 -7 -7 -61 -89 -119 -183 -58 -93 -109 -173 -114 -178 -5 -5 -61
76 -127 182 l-119 191 -118 0 c-92 0 -117 -3 -111 -12z"/>
<path d="M3040 4570 l0 -90 140 0 140 0 0 -395 0 -395 100 0 100 0 2 393 3
392 143 3 142 3 0 89 0 90 -385 0 -385 0 0 -90z"/>
<path d="M5470 4176 l0 -486 100 0 100 0 0 170 0 170 78 0 77 0 94 -170 95
-170 118 0 c65 0 118 2 118 4 0 3 -48 84 -106 180 -98 164 -111 196 -81 196 7
0 35 16 64 35 41 27 58 48 84 101 28 57 33 76 32 142 0 97 -27 165 -90 223
-88 80 -102 84 -410 87 l-273 3 0 -485z m483 290 c50 -21 70 -50 75 -110 4
-50 2 -56 -31 -92 l-35 -39 -146 -3 -146 -3 0 130 0 131 125 0 c84 0 136 -5
158 -14z"/>
<path d="M7845 4648 c-3 -7 -4 -224 -3 -483 l3 -470 103 -3 102 -3 0 206 0
205 230 0 230 0 0 -205 0 -205 105 0 105 0 0 485 0 485 -105 0 -105 0 0 -190
0 -190 -230 0 -230 0 0 190 0 190 -100 0 c-71 0 -102 -4 -105 -12z"/>
<path d="M14210 4487 c-92 -26 -154 -82 -195 -177 -16 -36 -20 -67 -20 -160 0
-109 2 -118 30 -169 54 -98 149 -153 266 -153 86 -1 157 24 214 74 l46 41 -37
38 -37 38 -31 -26 c-87 -73 -204 -71 -269 6 -27 32 -51 97 -41 113 3 4 100 8
216 8 l211 0 -7 87 c-8 93 -22 136 -63 195 -50 72 -185 113 -283 85z m143
-124 c28 -14 52 -57 64 -114 l6 -29 -142 0 c-135 0 -141 1 -141 20 0 32 25 83
52 108 46 42 98 47 161 15z"/>
<path d="M14935 4489 c-22 -5 -57 -23 -77 -39 -20 -17 -39 -30 -42 -30 -3 0
-6 14 -6 30 l0 30 -70 0 -70 0 0 -320 0 -320 75 0 75 0 0 238 c0 235 0 239 23
259 55 50 137 59 182 21 38 -33 44 -79 45 -310 l0 -208 70 0 70 0 0 225 c0
237 -8 304 -43 357 -40 60 -142 89 -232 67z"/>
<path d="M15487 4490 c-85 -22 -148 -76 -167 -145 -27 -97 34 -178 162 -215
136 -40 171 -55 191 -82 20 -27 20 -29 4 -62 -13 -28 -25 -37 -59 -46 -82 -23
-158 6 -180 66 l-12 34 -69 0 -69 0 7 -32 c25 -113 132 -183 281 -181 166 2
274 107 244 236 -16 74 -69 110 -226 154 -142 39 -177 82 -115 144 55 54 168
32 193 -38 12 -33 12 -33 80 -33 66 0 68 1 68 25 0 31 -30 93 -57 117 -53 49
-194 78 -276 58z"/>
<path d="M16124 4487 c-91 -24 -168 -98 -197 -190 -24 -77 -23 -211 3 -281 46
-121 144 -188 276 -188 205 0 333 175 295 403 -13 77 -28 114 -73 171 -59 75
-194 113 -304 85z m117 -107 c100 -28 150 -161 115 -300 -23 -90 -64 -132
-138 -138 -44 -3 -59 0 -87 20 -62 41 -76 79 -76 198 0 112 10 143 58 188 20
19 57 36 87 41 3 1 21 -4 41 -9z"/>
<path d="M16846 4490 c-16 -5 -44 -24 -63 -42 l-33 -32 0 32 0 32 -70 0 -70 0
0 -320 0 -320 70 0 70 0 0 224 0 223 25 27 c31 34 64 46 126 46 l49 0 0 64 c0
49 -4 65 -16 70 -21 8 -52 6 -88 -4z"/>
<path d="M18187 4490 c-94 -24 -150 -71 -194 -165 -25 -54 -28 -71 -28 -165 0
-99 2 -110 33 -172 53 -109 138 -160 262 -160 186 0 300 128 300 337 0 141
-66 259 -169 304 -58 25 -150 34 -204 21z m148 -129 c17 -9 41 -37 55 -62 22
-39 25 -56 24 -139 0 -111 -21 -164 -77 -199 -73 -45 -168 -16 -209 63 -43 85
-31 247 25 311 26 31 92 56 127 48 14 -3 39 -13 55 -22z"/>
<path d="M18605 4468 c2 -7 41 -151 87 -320 l83 -308 60 0 60 0 65 215 c35
118 67 215 71 215 6 0 39 -99 109 -328 l32 -103 60 3 61 3 83 305 c46 168 83
311 84 318 0 10 -17 12 -67 10 l-67 -3 -48 -205 c-60 -261 -54 -238 -61 -220
-5 15 -102 338 -119 398 -9 33 -9 33 -66 30 l-56 -3 -48 -160 c-27 -88 -56
-184 -65 -213 -9 -29 -17 -51 -19 -49 -5 5 -33 115 -74 290 l-32 137 -69 0
c-50 0 -67 -3 -64 -12z"/>
</g>
</svg>
